<?xml version="1.0" standalone="no"?>
<!DOCTYPE svg PUBLIC "-//W3C//DTD SVG 20010904//EN"
 "http://www.w3.org/TR/2001/REC-SVG-20010904/DTD/svg10.dtd">
<svg version="1.0" xmlns="http://www.w3.org/2000/svg"
 width="472.000000pt" height="468.000000pt" viewBox="0 0 472.000000 468.000000"
 preserveAspectRatio="xMidYMid meet">
<metadata>
Created by potrace 1.16, written by Peter Selinger 2001-2019
</metadata>
<g transform="translate(0.000000,468.000000) scale(0.100000,-0.100000)"
fill="#000000" stroke="none">
<path d="M2346 4432 c-73 -130 -73 -130 -106 -137 -34 -7 -34 -8 -19 -36 7
-14 19 -19 44 -17 32 2 37 8 97 115 l63 114 36 -5 c35 -6 35 -5 31 24 -4 28
-7 30 -51 30 l-46 0 -49 -88z"/>
<path d="M2926 4513 c-3 -3 -6 -82 -6 -174 0 -156 1 -169 19 -179 11 -5 24
-10 28 -10 5 0 7 42 5 93 -2 51 -2 102 0 113 3 16 7 14 21 -13 16 -30 19 -31
47 -21 l30 10 -29 36 c-15 21 -46 63 -68 94 -22 32 -43 55 -47 51z"/>
<path d="M1714 4428 c-27 -40 -71 -104 -98 -141 -44 -60 -48 -70 -38 -92 7
-14 15 -25 19 -25 5 1 33 39 63 85 58 89 76 105 67 56 -4 -21 -2 -31 9 -35 42
-16 44 -11 44 109 0 63 -4 115 -8 115 -5 0 -31 -33 -58 -72z"/>
<path d="M2087 4415 c-9 -20 -17 -40 -17 -44 0 -5 27 -56 59 -112 57 -98 59
-104 45 -131 -19 -37 -18 -39 17 -36 25 2 35 10 47 36 15 31 15 35 -8 79 -14
25 -44 73 -67 106 -40 58 -41 62 -27 89 17 32 12 48 -15 48 -10 0 -24 -15 -34
-35z"/>
<path d="M3318 4395 c-2 -2 -74 -28 -158 -58 -148 -50 -155 -54 -158 -81 -3
-24 -1 -28 15 -23 10 3 52 17 93 31 96 33 110 33 80 1 -24 -25 -24 -26 -4 -45
20 -20 20 -20 86 75 37 52 63 97 59 99 -5 3 -10 3 -13 1z"/>
<path d="M1360 4361 c0 -10 62 -100 143 -205 56 -74 76 -86 107 -66 15 9 14
11 -88 137 l-33 41 36 -10 c31 -10 37 -9 50 8 8 10 15 22 15 25 0 3 -37 17
-82 29 -46 13 -95 29 -110 37 -32 15 -38 16 -38 4z"/>
<path d="M2376 4336 c-21 -33 -20 -38 8 -65 23 -21 33 -23 149 -22 122 0 124
0 137 -24 14 -26 26 -30 48 -17 9 7 7 18 -10 50 l-23 42 -128 0 -127 0 -19 30
-18 31 -17 -25z"/>
<path d="M2045 4292 c-24 -3 -38 -16 -68 -63 -38 -58 -57 -73 -57 -44 0 8 -7
15 -16 15 -9 0 -56 14 -106 30 -103 35 -114 36 -122 14 -11 -28 -7 -31 91 -60
89 -26 95 -30 70 -38 -21 -8 -27 -16 -27 -39 0 -18 5 -27 13 -25 6 2 46 14 88
27 74 22 76 24 105 77 26 48 32 54 62 54 36 0 40 9 15 37 -12 13 -28 17 -48
15z"/>
<path d="M2876 4243 c-4 -5 -42 -19 -84 -33 -74 -25 -78 -27 -105 -78 -24 -45
-32 -52 -58 -52 -17 0 -29 -5 -29 -13 0 -22 23 -37 56 -37 29 0 37 6 66 55 31
52 52 68 60 45 3 -10 140 -53 199 -63 31 -4 38 -2 47 17 9 21 5 23 -90 50 -64
19 -94 32 -86 37 7 5 21 9 31 9 13 0 17 8 17 35 0 34 -8 43 -24 28z"/>
<path d="M3095 4230 c-8 -13 -3 -20 62 -101 29 -36 53 -69 53 -73 0 -4 -13 0
-30 9 -28 15 -30 14 -46 -10 -9 -14 -15 -27 -13 -29 2 -2 41 -16 87 -31 84
-27 128 -57 281 -188 52 -45 55 -46 74 -30 18 17 17 19 -24 56 -24 21 -58 50
-76 64 -41 31 -42 41 -3 35 25 -4 31 0 40 23 14 36 15 35 -29 35 -21 0 -65 3
-97 6 -56 6 -61 9 -89 48 -114 161 -171 217 -190 186z"/>
<path d="M2472 4205 c-19 -40 -16 -51 45 -157 53 -94 56 -102 45 -132 -16 -43
-16 -43 14 -49 22 -4 28 1 47 39 l21 43 -46 68 c-89 132 -91 138 -74 172 21
40 21 41 -12 41 -21 0 -32 -7 -40 -25z"/>
<path d="M3608 4147 c-108 -245 -111 -254 -80 -274 16 -10 22 -1 58 88 39 98
39 98 50 66 8 -24 18 -33 37 -35 15 -2 27 0 27 5 0 18 -44 219 -50 225 -3 5
-22 -29 -42 -75z"/>
<path d="M1037 4133 c-2 -26 -15 -104 -27 -172 -21 -119 -21 -126 -4 -138 10
-7 20 -13 24 -13 3 0 14 46 24 102 16 91 20 100 32 83 8 -10 14 -22 14 -27 0
-12 48 -10 55 2 7 12 -87 202 -102 207 -6 2 -13 -18 -16 -44z"/>
<path d="M1732 4059 l3 -110 -26 29 c-21 23 -30 27 -48 20 -25 -9 -27 -5 42
-102 54 -76 118 -192 167 -306 39 -91 41 -93 73 -85 l25 7 -45 89 c-25 49 -44
92 -41 95 3 2 17 -1 32 -7 23 -11 30 -10 47 7 19 20 19 20 -53 58 -40 22 -85
48 -100 58 l-26 18 -1 158 c-1 134 -4 159 -18 170 -9 6 -21 12 -26 12 -4 0 -7
-50 -5 -111z"/>
<path d="M3040 4062 l-55 -87 -5 35 c-4 27 -10 36 -27 38 -23 3 -23 2 -23
-100 l0 -104 -132 -82 c-163 -100 -157 -95 -151 -126 7 -33 11 -32 53 2 45 36
130 85 137 79 2 -3 -1 -15 -7 -27 -9 -18 -8 -25 6 -41 9 -10 20 -19 24 -19 4
0 26 46 50 103 23 56 68 138 99 182 31 44 74 106 95 138 36 56 37 59 20 78 -9
10 -20 19 -23 19 -3 -1 -31 -40 -61 -88z"/>
<path d="M1465 4082 c-16 -26 -35 -54 -42 -62 -7 -8 -18 -23 -25 -33 -9 -12
-35 -21 -83 -27 -218 -29 -226 -31 -236 -58 -5 -14 -8 -26 -6 -28 1 -2 49 5
105 15 79 14 102 16 102 6 0 -7 -7 -15 -15 -19 -16 -6 -20 -43 -6 -65 7 -10
25 2 76 50 81 77 69 70 202 118 147 52 167 62 171 89 2 12 0 22 -3 22 -4 0
-45 -13 -92 -30 -46 -16 -92 -30 -100 -30 -14 0 -14 2 0 23 13 20 13 26 1 50
-8 15 -16 27 -17 27 -1 -1 -15 -22 -32 -48z"/>
<path d="M1983 4109 c-9 -9 -8 -19 2 -40 29 -55 33 -57 165 -51 l122 5 23 -29
22 -28 12 22 c9 17 8 28 -4 52 l-16 30 -129 0 c-127 0 -130 0 -146 25 -18 27
-34 31 -51 14z"/>
<path d="M2415 4071 c-11 -5 -47 -57 -80 -116 l-60 -107 -38 4 c-34 3 -38 2
-33 -17 3 -11 6 -23 6 -27 0 -5 24 -8 53 -8 l52 1 61 112 c56 102 64 112 93
115 34 4 37 9 17 35 -14 18 -38 21 -71 8z"/>
<path d="M2123 3992 c-24 -2 -34 -10 -43 -33 -12 -28 -10 -34 25 -85 41 -59
41 -60 9 -181 -4 -15 0 -25 16 -33 30 -16 35 -7 50 91 l12 78 -31 55 c-31 53
-31 56 -15 81 20 30 19 31 -23 27z"/>
<path d="M3611 3949 c-7 -12 -10 -23 -8 -25 2 -2 42 -7 88 -11 46 -3 93 -9
104 -13 19 -7 18 -9 -7 -20 -28 -13 -37 -43 -18 -55 11 -7 141 64 187 101 l28
23 -85 1 c-82 2 -102 3 -220 14 -49 5 -57 3 -69 -15z"/>
<path d="M855 3904 c-49 -8 -96 -15 -104 -16 -17 -3 120 -89 228 -143 70 -35
74 -35 92 -19 18 17 17 18 -43 55 -34 21 -74 43 -90 50 -34 14 -37 29 -5 29
23 0 53 41 40 54 -7 7 -4 7 -118 -10z"/>
<path d="M2382 3886 c-9 -21 -8 -31 6 -57 17 -30 18 -30 83 -26 l67 4 53 -49
c29 -26 55 -48 59 -48 17 0 44 29 35 38 -109 96 -120 102 -189 102 -36 0 -66
3 -66 8 0 4 -8 17 -18 30 l-18 23 -12 -25z"/>
<path d="M1168 3862 c-16 -3 -15 -9 11 -60 57 -114 63 -146 23 -121 -18 11
-24 10 -42 -6 -20 -18 -20 -19 72 -70 l93 -52 7 -89 c3 -49 7 -125 8 -169 3
-77 10 -95 38 -95 9 0 12 28 12 107 l0 106 23 -21 c23 -22 52 -29 60 -14 3 4
-19 39 -47 78 -29 40 -89 146 -134 237 -44 90 -86 166 -94 169 -7 2 -21 3 -30
0z"/>
<path d="M3567 3753 c-43 -25 -80 -43 -83 -40 -3 3 0 15 6 27 9 16 9 25 -1 36
-22 26 -34 14 -74 -78 -21 -50 -49 -105 -60 -122 -173 -253 -175 -256 -165
-276 6 -11 14 -20 19 -20 4 0 34 39 67 87 l59 88 3 -35 c4 -37 15 -50 45 -50
16 0 18 9 15 107 l-3 108 140 87 c77 48 140 92 139 98 -3 26 -5 30 -16 30 -7
-1 -48 -22 -91 -47z"/>
<path d="M956 3703 c-2 -10 -10 -50 -17 -89 l-12 -72 32 -56 c30 -52 31 -57
17 -78 -23 -32 -20 -40 11 -36 18 2 33 13 43 31 14 26 13 31 -18 90 l-34 62
17 70 c15 65 15 70 -2 82 -23 17 -31 16 -37 -4z"/>
<path d="M3644 3705 c-18 -14 -15 -19 50 -81 67 -64 69 -65 120 -63 71 2 71 2
85 -28 l12 -26 22 21 c20 21 20 23 4 57 l-17 35 -69 0 c-69 0 -71 1 -129 49
-54 45 -61 49 -78 36z"/>
<path d="M2049 3644 c-16 -19 0 -34 105 -91 l69 -38 -34 -5 c-28 -4 -35 -10
-37 -33 -3 -27 -2 -28 30 -23 155 27 174 27 346 10 95 -9 175 -15 177 -12 3 2
6 15 7 29 3 22 0 24 -47 26 -27 2 -75 6 -105 9 l-55 6 29 15 c23 12 27 19 21
41 -4 15 -8 29 -10 31 -2 2 -30 -13 -62 -32 -32 -19 -73 -42 -91 -52 l-34 -16
-126 69 c-152 83 -165 88 -183 66z"/>
<path d="M2763 3647 c-30 -13 -29 -29 5 -49 15 -9 52 -39 82 -67 l55 -51 -37
6 c-30 5 -38 2 -47 -14 -6 -12 -11 -23 -11 -25 0 -2 42 -10 93 -17 l92 -12 91
-117 c80 -102 94 -116 119 -114 15 1 30 4 33 7 3 3 -15 29 -40 58 -50 60 -92
118 -84 118 2 0 17 -5 32 -10 21 -9 29 -7 40 7 7 10 14 21 14 24 0 4 -40 19
-89 34 -93 29 -108 39 -266 184 -53 49 -56 50 -82 38z"/>
<path d="M3973 3557 c-59 -119 -89 -157 -123 -157 -17 0 -30 -3 -30 -7 1 -20
29 -42 61 -48 34 -6 35 -5 62 52 16 32 45 84 65 115 33 51 41 58 70 58 31 0
40 13 24 36 -4 6 -26 14 -50 17 l-43 5 -36 -71z"/>
<path d="M797 3553 c-3 -10 -30 -61 -60 -113 -51 -88 -57 -95 -86 -95 -17 0
-31 -1 -31 -2 0 -1 5 -14 12 -28 9 -19 19 -25 44 -25 37 0 50 16 126 157 39
71 39 72 73 66 34 -5 35 -4 35 26 0 31 0 31 -54 31 -42 0 -55 -4 -59 -17z"/>
<path d="M1785 3508 c-73 -73 -68 -69 -222 -123 -69 -24 -129 -48 -133 -52 -4
-4 -11 -19 -15 -32 -8 -27 -10 -27 85 7 30 11 70 23 89 27 l34 7 -22 -27 -21
-28 21 -23 22 -23 36 53 c77 112 63 103 196 121 167 21 179 25 183 59 3 27 2
28 -25 21 -55 -15 -109 -24 -142 -25 -32 0 -33 1 -18 18 20 22 21 41 4 63 -11
15 -19 10 -72 -43z"/>
<path d="M2076 3507 c-4 -28 -13 -75 -20 -102 -13 -50 -13 -50 -24 -22 -9 21
-18 27 -42 27 -16 0 -30 -4 -30 -10 0 -5 17 -44 37 -85 l38 -75 -19 -53 c-10
-28 -36 -94 -58 -145 -39 -89 -40 -93 -23 -112 22 -24 35 -26 35 -4 0 25 72
184 82 178 4 -3 8 -16 8 -29 0 -18 7 -26 25 -31 14 -4 28 -5 30 -2 2 2 -6 41
-17 86 l-21 83 28 162 c25 153 26 162 9 174 -28 20 -31 17 -38 -40z"/>
<path d="M2760 3534 c-6 -15 -25 -61 -42 -103 l-33 -76 -9 37 c-7 26 -15 37
-33 41 -28 5 -28 8 -4 -101 l20 -87 -29 -149 -28 -150 21 -18 c11 -10 23 -15
27 -11 4 5 12 44 19 88 18 119 21 125 37 87 11 -26 19 -32 44 -32 16 0 30 3
30 6 0 3 -18 45 -41 93 l-40 88 46 114 c26 63 52 126 58 141 8 20 8 30 -2 42
-19 23 -30 20 -41 -10z"/>
<path d="M3696 3519 l-18 -40 61 -106 c34 -59 61 -111 61 -117 0 -7 -7 -22
-16 -34 -15 -21 -14 -22 18 -22 26 0 37 6 51 31 17 31 17 32 -14 88 -18 31
-47 77 -66 104 -38 54 -40 63 -16 90 17 18 17 19 -2 33 -29 21 -38 17 -59 -27z"/>
<path d="M499 3463 l-23 -36 34 -61 c18 -34 45 -77 60 -96 41 -54 42 -57 25
-89 -20 -39 -19 -41 9 -41 28 0 56 33 56 65 0 12 -27 66 -59 121 -56 95 -58
100 -44 127 29 57 -23 67 -58 10z"/>
<path d="M3987 3433 c-16 -29 -15 -31 12 -57 26 -25 31 -26 152 -26 l125 0 15
-29 c14 -30 14 -30 37 -11 l23 19 -26 36 -27 35 -122 0 -121 0 -26 32 -27 32
-15 -31z"/>
<path d="M792 3380 c-10 -17 -10 -26 3 -50 15 -28 19 -30 78 -31 34 -1 67 -2
72 -4 6 -1 37 -3 71 -3 55 -2 62 -5 72 -27 11 -25 13 -25 37 -9 23 15 24 18
10 44 -30 57 -33 58 -169 53 l-125 -6 -12 27 c-15 31 -20 32 -37 6z"/>
<path d="M3598 3336 c-36 -62 -38 -64 -103 -82 -52 -15 -67 -24 -72 -42 -3
-13 -3 -26 1 -29 3 -4 46 6 94 22 86 28 87 29 113 79 24 46 30 51 63 54 40 4
43 8 20 40 -10 15 -25 22 -47 22 -30 0 -36 -6 -69 -64z"/>
<path d="M4113 3323 c-11 -2 -26 -17 -33 -33 -11 -26 -7 -36 51 -136 62 -108
62 -108 45 -137 -9 -17 -15 -30 -14 -31 44 -26 54 -24 77 16 l23 40 -31 46
c-16 26 -46 75 -67 110 -34 59 -35 66 -23 90 7 15 15 30 17 35 4 7 -7 7 -45 0z"/>
<path d="M1275 3285 c-16 -8 -55 -22 -85 -30 -50 -14 -58 -20 -85 -68 -25 -44
-35 -52 -62 -55 -37 -4 -39 -9 -19 -38 11 -15 23 -19 48 -16 27 4 39 14 70 61
34 53 40 57 102 75 65 18 66 19 66 52 0 19 -1 34 -2 33 -2 0 -16 -7 -33 -14z"/>
<path d="M1513 3283 c-17 -6 -16 -16 5 -39 9 -10 33 -39 52 -64 19 -25 41 -51
48 -59 18 -19 9 -23 -24 -11 -25 10 -30 8 -46 -12 -20 -26 -29 -20 97 -57 72
-21 66 -16 259 -186 43 -38 52 -42 72 -33 23 11 33 28 17 28 -5 0 -42 32 -83
71 l-75 71 36 -6 c28 -5 38 -3 43 10 14 37 7 41 -81 48 -80 5 -90 9 -113 34
-66 74 -117 138 -139 173 -22 37 -38 44 -68 32z"/>
<path d="M885 3251 c-8 -17 -15 -35 -15 -41 0 -6 27 -57 61 -115 60 -102 60
-104 45 -134 -20 -39 -21 -38 10 -44 21 -4 29 1 45 27 10 17 19 39 19 48 0 18
-58 123 -97 174 -27 36 -30 66 -8 84 18 15 13 23 -20 27 -18 3 -28 -4 -40 -26z"/>
<path d="M3342 3165 l5 -105 -22 20 c-22 21 -50 26 -59 11 -3 -5 24 -53 61
-107 54 -80 159 -280 186 -357 5 -12 16 -17 37 -15 16 1 30 4 30 7 0 3 -20 44
-45 92 -25 48 -45 90 -45 93 0 4 13 0 30 -9 27 -14 30 -14 49 7 l21 22 -93 50
-92 51 -5 163 c-5 167 -9 181 -49 182 -11 0 -13 -20 -9 -105z"/>
<path d="M3110 3225 c0 -17 -101 -150 -118 -156 -17 -6 -53 -12 -205 -29 -90
-11 -97 -14 -97 -42 0 -20 4 -21 68 -14 37 3 85 9 107 12 l40 5 -23 -20 c-17
-15 -21 -26 -16 -45 3 -14 9 -26 13 -26 3 0 38 28 76 61 39 34 90 70 114 80
62 27 217 79 235 79 11 0 16 9 16 28 0 16 -3 31 -6 34 -3 3 -42 -9 -87 -28
-103 -42 -108 -42 -95 -6 9 23 8 34 -5 53 -10 13 -17 19 -17 14z"/>
<path d="M3605 3210 c-17 -18 -16 -21 5 -55 l22 -36 77 1 c178 3 186 2 201
-25 7 -14 17 -25 21 -25 16 0 19 52 4 80 l-16 30 -128 0 c-126 0 -128 0 -141
25 -16 30 -22 31 -45 5z"/>
<path d="M1488 3158 c-13 -18 -39 -57 -58 -85 -18 -29 -35 -53 -38 -53 -2 0
-1 15 2 34 5 26 3 35 -10 40 -41 16 -44 10 -44 -98 l0 -104 -117 -72 c-65 -40
-128 -79 -140 -87 -26 -15 -30 -51 -7 -60 8 -3 25 3 37 14 23 21 129 83 142
83 4 0 0 -12 -10 -26 -16 -24 -16 -27 1 -45 23 -25 41 -24 47 4 13 57 59 145
154 290 74 113 102 164 98 178 -9 28 -29 23 -57 -13z"/>
<path d="M4049 3182 c-35 -3 -39 -8 -87 -95 -28 -51 -54 -100 -58 -109 -4 -11
-17 -18 -33 -18 -38 0 -54 -14 -46 -39 5 -18 14 -21 55 -21 l48 0 60 113 c58
112 59 112 95 112 42 0 43 1 19 35 -14 20 -24 24 -53 22z"/>
<path d="M397 3159 c-16 -10 -15 -13 14 -50 l31 -39 128 0 128 0 13 -32 13
-31 14 30 c13 27 12 33 -3 57 -17 26 -18 26 -145 26 -126 0 -127 0 -138 25
-12 27 -27 30 -55 14z"/>
<path d="M778 3053 c-26 -43 -55 -95 -64 -115 -15 -33 -22 -38 -51 -38 -29 0
-33 -3 -33 -25 0 -23 3 -25 48 -25 l47 0 55 97 c30 53 58 105 62 115 5 12 18
18 38 18 33 0 35 2 20 31 -7 13 -21 19 -43 19 -30 0 -37 -6 -79 -77z"/>
<path d="M3697 3066 c-16 -34 -16 -35 19 -83 31 -43 34 -53 29 -95 -3 -25 -10
-59 -16 -74 -9 -24 -7 -30 13 -46 13 -9 26 -14 29 -10 4 4 13 44 21 89 l15 83
-29 52 c-24 43 -27 57 -18 76 15 35 12 42 -18 42 -22 0 -32 -7 -45 -34z"/>
<path d="M504 3018 c-16 -32 -16 -33 17 -94 l33 -62 -16 -68 c-15 -63 -15 -69
0 -81 31 -23 38 -13 53 75 l15 87 -29 52 c-27 49 -27 53 -13 82 21 40 21 41
-14 41 -23 0 -33 -7 -46 -32z"/>
<path d="M2025 3000 c-4 -12 -5 -23 -3 -25 1 -1 41 -6 88 -9 47 -4 94 -10 104
-13 18 -5 17 -7 -7 -20 -18 -9 -27 -22 -27 -38 0 -14 4 -25 10 -25 5 0 48 23
94 50 l85 50 103 -55 c156 -85 189 -99 207 -88 25 16 22 27 -12 44 -18 9 -59
31 -92 50 -60 34 -60 34 -28 37 25 3 34 9 39 28 4 14 5 26 3 28 -2 2 -40 -1
-84 -6 -77 -9 -311 -4 -421 8 -47 6 -52 5 -59 -16z"/>
<path d="M4002 2998 c-17 -17 -15 -42 6 -67 13 -16 31 -21 85 -24 66 -4 70 -5
117 -52 45 -45 51 -48 75 -37 23 11 35 32 18 32 -5 0 -21 12 -38 28 -86 78
-93 82 -161 82 -35 0 -64 4 -64 8 0 5 -6 16 -13 25 -10 14 -15 15 -25 5z"/>
<path d="M798 2934 c-10 -21 -9 -31 3 -52 13 -24 21 -27 74 -29 33 -1 67 -2
75 -3 8 0 39 -23 69 -51 52 -49 54 -50 73 -32 19 17 19 18 -5 38 -13 11 -44
37 -69 58 -40 33 -51 37 -102 37 -53 0 -58 2 -74 30 -21 37 -29 37 -44 4z"/>
<path d="M2770 2957 c0 -3 20 -43 45 -88 52 -98 56 -117 20 -93 -21 14 -31 15
-50 6 -14 -7 -25 -16 -25 -21 0 -6 40 -32 89 -58 l89 -48 6 -90 c4 -49 8 -126
10 -169 3 -79 9 -90 46 -95 3 -1 4 50 2 112 l-3 112 26 -28 c18 -20 31 -26 45
-22 28 9 26 15 -22 76 -24 29 -83 132 -133 228 -81 158 -93 176 -117 179 -16
2 -28 1 -28 -1z"/>
<path d="M4535 2942 c-76 -43 -213 -129 -242 -152 -31 -23 -46 -70 -23 -70 12
0 103 54 145 86 42 32 45 31 33 -12 -7 -28 -7 -39 4 -45 22 -14 28 -10 45 29
12 30 66 145 81 175 6 12 -11 8 -43 -11z"/>
<path d="M199 2823 c16 -32 52 -107 80 -166 47 -98 54 -107 74 -101 12 3 23 8
25 9 4 3 -59 147 -70 160 -4 5 -8 16 -8 24 0 12 3 11 18 -2 24 -22 35 -21 56
2 16 18 13 21 -82 75 -54 31 -104 56 -110 56 -7 0 0 -23 17 -57z"/>
<path d="M1984 2801 c-49 -33 -90 -58 -91 -57 -2 2 2 17 8 35 10 27 9 35 -5
49 -21 21 -24 16 -72 -92 -21 -49 -76 -141 -121 -205 -104 -147 -110 -158 -97
-179 18 -27 32 -25 50 10 9 18 20 35 23 38 3 3 20 25 36 50 l30 45 3 -30 c4
-32 16 -45 45 -45 15 0 17 12 17 108 l0 107 118 68 c64 37 127 76 140 86 21
18 32 71 14 71 -5 0 -49 -27 -98 -59z"/>
<path d="M2560 2730 l-13 -90 28 -51 c23 -43 26 -55 16 -75 -15 -34 -14 -43 7
-39 9 2 23 4 30 4 7 1 17 13 23 28 9 24 6 37 -22 88 l-32 60 16 69 c15 65 15
71 -1 83 -32 24 -39 14 -52 -77z"/>
<path d="M2065 2758 c-11 -6 -22 -13 -24 -14 -2 -2 13 -19 34 -36 21 -18 52
-45 69 -60 17 -15 40 -28 51 -28 62 -2 102 -13 122 -35 l21 -24 15 23 c14 20
13 26 -5 54 -19 31 -23 32 -86 32 -66 0 -68 1 -121 50 -30 28 -55 50 -55 50
-1 0 -10 -6 -21 -12z"/>
<path d="M3664 2746 c-23 -17 -28 -12 74 -71 85 -48 100 -65 58 -65 -22 0 -36
-16 -36 -42 0 -9 109 -4 180 8 14 2 103 -1 198 -8 149 -10 175 -10 183 3 14
23 10 35 -13 36 -13 1 -61 5 -108 8 l-84 7 27 20 c16 12 27 29 27 44 0 13 -2
24 -5 24 -2 0 -44 -23 -92 -51 l-88 -50 -35 16 c-19 9 -78 40 -130 70 -115 64
-131 69 -156 51z"/>
<path d="M4368 2749 c-26 -15 -23 -22 25 -57 23 -18 60 -48 82 -68 l40 -36
-37 5 c-33 5 -37 3 -46 -23 l-10 -28 66 -6 c37 -4 88 -9 115 -12 28 -3 47 -1
47 5 0 17 -238 231 -256 231 -5 0 -17 -5 -26 -11z"/>
<path d="M463 2691 c-11 -17 -8 -22 25 -42 20 -12 64 -36 97 -53 l60 -30 -35
-4 c-37 -4 -50 -15 -50 -45 0 -16 6 -17 43 -13 158 20 234 22 362 7 138 -16
150 -15 164 15 6 15 10 28 9 29 -2 2 -48 6 -102 9 -55 3 -101 8 -104 11 -2 2
8 10 22 17 23 10 26 16 21 37 -4 14 -8 28 -10 30 -3 2 -45 -19 -95 -48 -49
-28 -94 -51 -100 -51 -13 0 -232 121 -248 137 -19 19 -45 16 -59 -6z"/>
<path d="M1171 2694 c-22 -15 -21 -17 60 -82 l82 -67 -36 -3 c-26 -2 -38 -9
-42 -23 -4 -11 -5 -22 -3 -24 2 -3 43 -9 91 -14 48 -6 92 -13 97 -16 5 -3 41
-47 79 -98 109 -143 104 -137 129 -131 27 8 27 14 4 40 -9 10 -33 39 -52 64
-19 25 -40 51 -47 58 -19 20 -16 22 19 11 28 -8 35 -6 50 13 l17 23 -78 26
c-104 35 -107 37 -224 138 -126 107 -119 103 -146 85z"/>
<path d="M2363 2560 l-60 -115 -37 3 c-36 4 -36 3 -25 -22 8 -18 23 -28 46
-32 19 -4 37 -4 40 0 3 3 33 54 67 113 56 100 64 108 94 111 28 3 32 7 32 33
0 29 -1 29 -49 27 l-48 -3 -60 -115z"/>
<path d="M3389 2599 c-57 -51 -83 -66 -183 -103 -64 -25 -129 -47 -146 -51
-25 -5 -30 -11 -30 -36 0 -16 3 -29 8 -29 4 0 47 16 96 35 49 19 92 33 94 30
3 -3 -2 -13 -11 -23 -22 -24 -21 -35 1 -55 18 -16 21 -13 72 61 l54 79 152 18
c138 17 153 20 158 39 3 12 6 24 6 28 0 7 -76 1 -155 -12 -59 -10 -68 -5 -36
19 20 15 22 21 12 39 -7 12 -15 22 -19 22 -4 -1 -37 -28 -73 -61z"/>
<path d="M3690 2638 c0 -42 -23 -178 -31 -178 -4 0 -12 14 -18 31 -10 28 -14
30 -38 24 -16 -4 -29 -8 -31 -10 -2 -1 16 -41 40 -89 l42 -85 -53 -128 c-65
-157 -68 -168 -46 -177 9 -3 20 -4 25 -1 4 2 23 45 41 95 19 49 37 90 41 90 3
0 9 -13 13 -29 4 -20 13 -30 31 -34 29 -5 29 -5 5 99 l-18 80 29 155 c27 144
27 155 11 166 -26 20 -43 16 -43 -9z"/>
<path d="M4364 2608 c-9 -29 -27 -75 -40 -102 l-23 -49 -8 34 c-7 24 -16 35
-31 37 -26 4 -26 7 -5 -93 16 -79 16 -82 -11 -234 -20 -116 -23 -157 -15 -167
25 -30 36 -13 53 86 10 55 20 100 22 100 3 0 10 -14 16 -31 9 -27 14 -30 37
-24 14 4 28 9 30 11 3 3 -12 38 -32 80 -20 41 -37 80 -37 87 0 6 21 62 46 122
68 165 68 163 54 180 -22 27 -38 16 -56 -37z"/>
<path d="M187 2543 c-51 -51 -73 -79 -65 -84 14 -7 129 3 250 21 69 11 77 15
83 37 3 14 4 27 2 29 -2 2 -38 -3 -81 -11 -43 -8 -89 -15 -104 -15 l-25 0 21
23 c25 27 27 37 10 60 -12 16 -21 9 -91 -60z"/>
<path d="M496 2597 c-2 -12 -9 -54 -16 -92 -14 -89 -25 -109 -39 -72 -8 19
-17 27 -36 27 -25 0 -33 -17 -17 -35 5 -6 21 -38 35 -73 l27 -63 -34 -87 c-19
-48 -45 -114 -58 -148 l-25 -61 20 -16 c30 -24 34 -22 42 20 4 20 21 67 38
103 l30 65 6 -35 c5 -29 11 -36 35 -38 27 -3 28 -2 21 25 -35 130 -35 141 -9
298 14 83 27 157 30 166 3 10 -5 20 -21 27 -22 10 -25 9 -29 -11z"/>
<path d="M1167 2559 c-13 -30 -33 -76 -43 -104 l-19 -50 -5 35 c-4 29 -10 35
-38 41 -31 6 -33 5 -28 -15 3 -11 14 -58 23 -104 16 -82 16 -84 -10 -210 -15
-70 -27 -137 -27 -149 0 -18 25 -43 43 -43 5 0 23 85 34 160 l9 55 17 -32 c13
-25 23 -32 42 -31 14 1 25 5 25 9 0 4 -16 44 -35 89 -19 45 -35 86 -35 91 0 5
25 69 55 141 l56 132 -20 20 -20 20 -24 -55z"/>
<path d="M2110 2571 l-20 -41 32 -57 c17 -32 47 -79 66 -106 25 -35 32 -54 28
-72 -4 -14 -11 -25 -16 -25 -6 0 -10 -4 -10 -10 0 -5 13 -10 29 -10 27 0 61
33 61 59 0 5 -27 56 -60 113 -33 56 -60 107 -60 112 0 5 8 18 17 28 18 20 12
32 -24 42 -18 6 -25 0 -43 -33z"/>
<path d="M2411 2487 c-14 -36 -14 -38 8 -66 17 -22 22 -23 143 -22 l125 2 13
-31 c15 -35 21 -37 45 -10 18 19 17 21 -1 55 -10 19 -23 35 -29 36 -5 0 -66 0
-135 -1 l-126 -1 -16 33 -16 33 -11 -28z"/>
<path d="M2036 2427 c-8 -12 -22 -39 -32 -60 -16 -34 -25 -40 -91 -60 -67 -20
-73 -24 -73 -49 0 -16 3 -28 7 -28 4 0 43 11 88 25 l80 24 28 56 c25 51 29 55
62 55 19 0 35 4 35 8 0 19 -27 40 -57 46 -27 4 -36 1 -47 -17z"/>
<path d="M2834 2373 l-81 -25 -33 -60 c-31 -57 -34 -60 -66 -56 -38 5 -40 1
-18 -30 10 -15 25 -22 49 -22 31 0 37 5 67 58 32 55 36 58 106 81 67 22 72 26
72 52 0 16 -3 29 -7 28 -5 -1 -44 -12 -89 -26z"/>
<path d="M3132 2389 c-27 -10 -32 -2 62 -120 l49 -61 -31 7 c-23 5 -36 2 -47
-9 -20 -20 -19 -36 2 -36 42 0 170 -52 203 -83 56 -52 174 -153 187 -161 7 -4
22 -2 34 5 20 10 18 15 -57 85 -79 74 -79 74 -45 72 27 -2 35 1 42 19 4 12 5
24 1 27 -4 2 -43 7 -87 11 -75 7 -82 10 -115 44 -52 53 -112 128 -139 172 -25
42 -25 42 -59 28z"/>
<path d="M2496 2345 c-9 -13 -16 -26 -16 -28 0 -3 29 -55 65 -117 62 -107 65
-114 50 -136 -20 -30 -20 -30 13 -42 26 -9 29 -7 46 34 l18 44 -62 107 c-56
96 -62 110 -52 135 10 26 9 28 -18 28 -18 0 -33 -8 -44 -25z"/>
<path d="M1760 2213 c-1 -107 -1 -108 -19 -85 -19 22 -55 30 -65 14 -3 -5 22
-44 55 -88 57 -76 78 -114 168 -306 36 -76 45 -88 66 -88 14 0 25 4 25 9 0 6
-18 51 -39 100 -22 50 -37 91 -34 91 4 0 14 -7 24 -16 14 -13 20 -13 38 -2 12
7 21 17 21 23 0 6 -40 34 -89 63 l-88 53 -8 162 c-4 103 -11 165 -19 169 -31
21 -36 8 -36 -99z"/>
<path d="M3116 2268 c-11 -18 -39 -60 -63 -93 l-43 -59 0 42 c0 43 1 42 -47
42 -4 0 -6 -47 -4 -104 l2 -103 -109 -62 c-126 -70 -172 -105 -172 -131 0 -34
17 -30 101 25 46 29 85 53 86 51 2 -2 -2 -17 -8 -35 -10 -28 -9 -34 7 -46 11
-8 21 -14 24 -14 3 -1 24 44 47 99 28 63 73 142 126 217 111 156 111 156 89
183 l-17 21 -19 -33z"/>
<path d="M2015 2260 c-18 -20 -18 -21 6 -48 37 -42 37 -42 166 -42 l122 0 17
-32 16 -32 13 30 c11 25 10 34 -4 59 l-17 30 -129 1 c-128 1 -128 1 -142 28
-16 31 -24 32 -48 6z"/>
<path d="M1475 2198 c-27 -40 -50 -74 -51 -76 -3 -5 -52 -12 -185 -25 l-124
-12 -3 -29 -4 -29 49 6 c26 4 72 9 101 13 36 5 52 3 52 -5 0 -6 -7 -14 -15
-17 -17 -7 -19 -32 -6 -53 7 -11 25 0 83 52 67 59 86 70 196 111 68 25 132 46
142 46 11 0 20 6 21 13 0 6 2 20 4 30 3 17 -1 18 -32 12 -20 -3 -60 -17 -91
-31 -73 -32 -90 -32 -63 3 20 24 20 27 5 45 -10 10 -20 18 -24 18 -3 0 -28
-33 -55 -72z"/>
<path d="M2395 2158 c-72 -136 -81 -148 -121 -148 -33 0 -36 -2 -30 -22 3 -13
6 -26 6 -30 0 -5 21 -8 48 -8 l47 0 56 113 c56 112 57 112 93 112 20 0 36 1
36 2 0 1 -5 14 -12 28 -9 20 -18 25 -48 25 -36 0 -39 -2 -75 -72z"/>
<path d="M4590 2170 c-25 -4 -91 -13 -147 -20 -56 -7 -109 -17 -117 -24 -19
-14 -25 -52 -8 -48 66 13 188 29 192 25 3 -2 -3 -10 -13 -17 -19 -14 -22 -43
-8 -65 10 -15 19 -8 156 121 38 36 39 38 15 37 -14 -1 -45 -5 -70 -9z"/>
<path d="M2120 2131 c-16 -32 -12 -58 20 -109 l29 -48 -18 -72 -18 -72 25 -16
c13 -8 25 -14 27 -12 1 2 10 43 19 92 l16 89 -31 53 c-29 51 -29 54 -14 84
l16 30 -30 0 c-20 0 -34 -7 -41 -19z"/>
<path d="M3639 2102 c-5 -14 -8 -27 -5 -29 2 -2 51 -8 107 -12 97 -7 102 -8
77 -21 -28 -13 -33 -30 -20 -61 6 -15 21 -9 102 38 90 52 96 54 120 40 94 -56
246 -137 256 -137 6 0 17 7 24 15 15 19 8 25 -92 82 -38 21 -68 41 -68 46 0 4
14 7 30 7 17 0 30 4 30 9 0 5 3 17 6 26 6 15 -2 16 -92 8 -113 -9 -250 -8
-378 4 -88 9 -88 9 -97 -15z"/>
<path d="M135 2064 c22 -20 66 -60 99 -88 32 -28 64 -56 70 -61 30 -28 69 -45
86 -40 30 9 25 19 -32 67 -29 23 -64 53 -78 65 l-25 23 36 0 c30 0 38 4 43 22
3 13 2 26 -2 29 -4 4 -59 10 -122 14 l-115 6 40 -37z"/>
<path d="M440 2050 c-6 -12 -10 -23 -8 -25 2 -2 38 -6 82 -10 43 -4 90 -11
105 -15 l26 -7 -27 -13 c-20 -9 -27 -20 -26 -36 1 -13 6 -24 11 -24 4 0 45 21
90 47 45 25 87 46 92 46 6 0 63 -30 128 -67 130 -74 162 -84 192 -62 11 8 18
16 15 18 -3 3 -45 24 -93 48 -49 24 -90 48 -93 52 -3 4 10 8 29 8 29 0 35 4
39 25 3 14 3 27 -1 29 -3 2 -40 -1 -81 -6 -72 -9 -323 -4 -422 9 -40 5 -47 3
-58 -17z"/>
<path d="M2416 2049 c-21 -30 -20 -41 5 -73 19 -24 27 -26 89 -26 64 0 72 -3
107 -32 21 -18 43 -40 49 -48 10 -12 16 -13 38 -1 l25 14 -46 41 c-88 78 -103
86 -159 86 -47 0 -54 3 -72 31 l-19 31 -17 -23z"/>
<path d="M4380 2065 c0 -2 12 -26 28 -52 40 -71 73 -143 64 -143 -4 0 -18 7
-30 16 -22 15 -25 15 -47 -6 l-24 -22 67 -35 c37 -19 86 -46 110 -60 23 -13
42 -19 42 -14 0 6 -34 80 -76 166 -72 146 -78 155 -105 155 -16 0 -29 -2 -29
-5z"/>
<path d="M1194 2009 c-3 -6 13 -49 36 -95 23 -47 40 -87 37 -90 -3 -3 -15 0
-27 6 -18 9 -25 8 -41 -6 -19 -17 -17 -19 62 -65 45 -26 85 -51 89 -56 5 -4
11 -80 15 -168 4 -88 10 -163 13 -166 4 -4 17 -10 29 -13 22 -7 22 -7 16 101
l-6 108 24 -22 c24 -22 69 -23 69 -1 0 5 -29 48 -65 96 -55 74 -144 236 -192
350 -13 32 -45 44 -59 21z"/>
<path d="M3660 1945 c-15 -18 -142 -96 -147 -91 -2 2 2 15 8 30 11 23 10 30
-9 48 -12 12 -23 20 -25 17 -2 -2 -20 -43 -39 -90 -20 -48 -80 -153 -137 -239
-96 -145 -100 -154 -85 -172 22 -24 31 -15 92 80 l47 75 3 -37 c2 -20 7 -36
12 -36 5 0 15 -3 24 -6 13 -5 16 9 18 102 l3 108 133 82 c74 46 138 84 144 86
14 5 -1 58 -17 58 -7 0 -18 -7 -25 -15z"/>
<path d="M1154 1898 c-34 -36 -81 -79 -103 -92 -11 -7 -13 -3 -7 19 8 30 -4
45 -36 45 -12 0 -18 -8 -18 -20 0 -12 -7 -51 -17 -87 l-16 -66 28 -54 c24 -46
26 -58 16 -79 -17 -37 -14 -43 19 -40 22 2 35 10 45 30 20 37 20 38 -15 94
-29 48 -40 89 -20 77 11 -7 173 139 178 159 1 6 -3 19 -11 29 -12 17 -15 16
-43 -15z"/>
<path d="M4182 1882 c-26 -121 -26 -137 3 -182 26 -41 28 -61 10 -102 -6 -15
-2 -18 24 -18 26 0 34 6 48 34 16 35 16 35 -21 89 l-37 54 15 67 c20 85 20 81
-8 94 -24 10 -25 9 -34 -36z"/>
<path d="M465 1893 c-16 -9 -58 -36 -91 -59 -34 -24 -64 -44 -67 -44 -3 0 1
16 9 36 14 33 14 37 -3 50 -10 7 -20 13 -23 13 -3 1 -26 -49 -51 -109 -26 -61
-45 -110 -42 -110 13 0 121 61 205 117 87 57 98 67 98 94 0 16 -1 29 -2 29 -2
-1 -16 -8 -33 -17z"/>
<path d="M3669 1854 c-11 -14 -10 -19 11 -36 14 -11 45 -38 69 -59 40 -36 48
-39 101 -39 51 0 61 -3 79 -27 12 -14 23 -24 25 -22 20 24 23 46 10 71 -16 31
-14 30 -99 28 -60 -1 -61 -1 -108 49 -52 54 -67 60 -88 35z"/>
<path d="M473 1807 c-22 -10 -31 -27 -15 -27 6 0 25 -16 104 -88 24 -22 36
-25 90 -23 61 2 64 1 81 -30 l18 -32 15 22 c14 20 14 24 -3 54 -18 30 -23 32
-91 37 -67 5 -74 8 -114 46 -55 52 -59 54 -85 41z"/>
<path d="M2080 1790 c-11 -20 4 -32 125 -94 39 -19 45 -25 28 -27 -13 -1 -28
-2 -35 -3 -6 0 -15 -14 -19 -29 l-8 -29 82 7 c45 4 91 9 102 11 11 2 98 -1
194 -8 166 -11 174 -11 187 7 20 27 18 32 -13 34 -16 1 -66 5 -113 9 l-85 7
33 18 c30 17 43 49 24 61 -5 3 -47 -17 -93 -44 -46 -27 -90 -50 -98 -50 -7 0
-74 34 -148 75 -74 41 -138 75 -143 75 -5 0 -14 -9 -20 -20z"/>
<path d="M2777 1798 c-15 -12 -9 -19 49 -68 36 -30 75 -63 87 -73 22 -18 22
-18 -14 -13 -32 6 -37 3 -48 -20 -6 -15 -10 -28 -8 -31 3 -2 44 -7 92 -10 101
-7 89 2 199 -141 60 -77 85 -102 103 -102 13 0 23 5 23 10 0 6 -27 44 -60 86
-33 41 -60 78 -60 80 0 3 13 3 30 -1 29 -6 60 10 60 32 0 5 -31 17 -69 27 -85
22 -105 34 -241 146 -60 50 -113 90 -118 90 -4 0 -16 -6 -25 -12z"/>
<path d="M4044 1772 c-10 -7 -69 -105 -109 -184 -17 -32 -25 -38 -52 -38 -37
0 -41 -9 -15 -38 12 -15 25 -19 47 -15 25 4 38 18 76 81 25 42 52 92 60 110
11 26 19 32 45 32 31 0 44 14 44 46 0 15 -75 20 -96 6z"/>
<path d="M815 1678 c-17 -30 -43 -82 -60 -116 -29 -59 -32 -62 -67 -62 l-37 0
17 -30 c14 -24 22 -29 51 -26 32 2 37 8 95 114 59 107 62 111 94 112 30 0 33
2 30 28 -3 24 -7 27 -48 30 -45 3 -45 3 -75 -50z"/>
<path d="M1805 1650 c-81 -68 -123 -88 -297 -144 -62 -19 -68 -23 -68 -48 0
-16 5 -28 10 -28 6 0 52 16 101 35 50 19 93 35 96 35 3 0 -2 -12 -12 -26 -13
-21 -15 -31 -6 -50 13 -29 23 -30 36 -5 6 10 29 46 52 78 l42 60 123 17 c68 9
135 16 151 16 20 0 30 7 37 26 14 35 14 36 -22 30 -18 -3 -59 -8 -91 -11 -32
-3 -65 -9 -73 -12 -22 -8 -17 15 6 27 16 8 19 17 14 33 -3 12 -9 25 -13 28 -3
4 -42 -24 -86 -61z"/>
<path d="M2110 1694 c-6 -14 -10 -35 -10 -47 -1 -12 -7 -51 -14 -87 l-12 -65
-17 38 c-14 33 -20 37 -39 31 -13 -3 -24 -7 -25 -9 -2 -1 7 -21 18 -46 52
-105 60 -133 50 -154 -6 -11 -32 -74 -60 -140 -35 -86 -46 -124 -39 -132 21
-26 35 -11 69 71 35 87 50 103 59 64 4 -16 14 -24 34 -26 23 -3 27 0 23 12 -4
9 -13 57 -22 107 -16 94 -13 123 39 370 2 10 -6 21 -20 28 -22 10 -26 8 -34
-15z"/>
<path d="M2800 1700 c0 -5 -16 -43 -35 -84 -19 -41 -35 -80 -35 -86 0 -5 -4
-10 -10 -10 -5 0 -10 14 -10 30 0 17 -5 30 -12 31 -7 0 -21 2 -30 4 -22 4 -22
8 2 -101 l19 -91 -29 -149 -30 -149 22 -18 c22 -18 22 -18 34 22 6 22 15 62
18 88 4 26 10 57 13 67 5 18 7 18 19 -6 15 -29 53 -43 60 -23 3 7 -10 49 -28
92 l-34 78 53 129 c56 135 60 155 41 174 -15 15 -28 16 -28 2z"/>
<path d="M3728 1666 l-21 -44 38 -63 c21 -35 52 -81 68 -102 27 -35 29 -40 16
-65 -7 -15 -15 -30 -17 -34 -2 -5 9 -8 25 -8 23 0 33 7 45 33 l16 34 -62 108
c-61 105 -62 109 -48 138 12 25 12 31 1 38 -26 16 -39 9 -61 -35z"/>
<path d="M532 1625 l-21 -43 65 -112 c62 -107 64 -113 50 -136 -21 -32 -20
-34 12 -34 28 0 52 29 52 62 0 7 -27 59 -61 116 -58 99 -60 105 -45 127 20 31
20 30 -7 48 -23 15 -24 14 -45 -28z"/>
<path d="M4022 1586 c-9 -21 -8 -31 6 -56 l17 -31 127 3 127 3 16 -27 c18 -32
23 -33 48 -14 18 14 18 16 -5 56 l-23 42 -132 -5 c-73 -3 -133 -2 -133 1 0 4
-8 17 -18 30 l-18 23 -12 -25z"/>
<path d="M822 1535 c-11 -23 -10 -32 6 -59 l18 -31 132 4 131 3 12 -26 c14
-29 23 -32 43 -13 12 10 11 18 -6 49 l-21 36 -127 4 c-125 3 -127 3 -151 32
l-25 28 -12 -27z"/>
<path d="M3668 1538 c-8 -7 -29 -34 -46 -59 -27 -41 -38 -48 -101 -68 -67 -21
-71 -24 -71 -53 0 -20 4 -29 13 -25 6 2 48 17 93 32 76 26 81 29 108 76 26 47
37 54 79 49 17 -1 17 0 2 29 -17 33 -49 41 -77 19z"/>
<path d="M4111 1445 c-12 -35 -11 -39 49 -141 56 -97 60 -108 51 -136 -12 -35
-13 -33 15 -42 16 -5 24 1 37 29 9 20 17 41 17 48 0 7 -25 55 -55 107 -53 92
-66 132 -45 145 20 13 9 25 -23 25 -29 0 -35 -5 -46 -35z"/>
<path d="M1250 1421 l-85 -26 -30 -58 c-29 -57 -31 -58 -67 -55 -21 2 -38 2
-38 0 0 -1 7 -14 16 -27 13 -19 25 -25 55 -25 36 0 39 3 70 60 30 57 34 60 98
81 79 26 84 30 74 56 l-8 21 -85 -27z"/>
<path d="M1553 1442 c-13 -2 -23 -9 -23 -15 0 -7 25 -43 56 -82 73 -91 72 -88
35 -80 -25 5 -36 3 -46 -12 -18 -23 -18 -33 0 -33 8 0 48 -11 90 -24 65 -21
88 -35 172 -108 135 -117 147 -124 173 -105 l22 15 -27 18 c-15 11 -52 43 -83
72 -56 52 -56 53 -27 50 17 -1 36 1 43 5 13 9 17 48 5 45 -22 -5 -164 16 -176
26 -8 6 -49 57 -91 113 -88 116 -93 120 -123 115z"/>
<path d="M950 1423 c-15 -2 -32 -16 -42 -33 -16 -28 -16 -30 21 -82 21 -29 52
-78 69 -109 l32 -56 -20 -26 -21 -26 29 -15 c28 -15 29 -14 45 20 10 19 17 40
17 46 0 6 -27 60 -61 119 -58 103 -60 110 -45 131 17 24 21 39 9 37 -5 -1 -19
-4 -33 -6z"/>
<path d="M3373 1348 c0 -40 -1 -89 -2 -108 l-2 -35 -15 28 c-12 23 -19 26 -42
21 -15 -4 -28 -8 -29 -9 -2 0 6 -12 17 -26 78 -99 124 -173 170 -276 72 -160
86 -183 116 -183 30 0 29 8 -22 119 -19 41 -34 76 -34 79 0 2 12 -3 26 -13 24
-16 27 -16 45 1 21 19 25 34 9 34 -10 0 -107 58 -153 92 -16 11 -19 34 -23
168 -3 85 -7 161 -9 168 -3 6 -15 12 -28 12 -22 0 -23 -3 -24 -72z"/>
<path d="M3086 1302 l-57 -79 -141 -16 c-145 -18 -168 -25 -168 -59 0 -17 5
-18 38 -13 60 10 156 25 166 25 5 0 0 -10 -12 -23 -26 -27 -26 -35 -7 -61 14
-18 18 -16 87 50 69 65 80 71 188 108 153 52 170 61 170 90 l0 24 -97 -34
c-53 -19 -98 -32 -101 -29 -3 3 2 13 11 23 22 24 21 35 -2 56 -18 16 -21 13
-75 -62z"/>
<path d="M3632 1367 l-22 -13 32 -43 31 -43 125 4 124 3 15 -29 c15 -28 16
-29 29 -11 8 10 14 23 14 28 0 13 -22 51 -34 59 -6 4 -65 8 -132 8 -118 0
-121 0 -134 25 -15 28 -17 29 -48 12z"/>
<path d="M1495 1265 c-32 -47 -62 -88 -67 -91 -4 -3 -8 13 -8 35 0 23 -4 41
-9 41 -5 0 -16 3 -25 6 -13 5 -16 -10 -18 -107 l-3 -114 -125 -77 c-69 -42
-130 -81 -137 -87 -9 -8 -8 -51 2 -51 2 0 41 23 88 50 47 28 88 50 91 50 4 0
0 -13 -9 -29 -14 -28 -14 -31 8 -46 22 -16 22 -15 74 95 29 60 73 140 99 177
141 201 133 187 111 217 -12 16 -19 10 -72 -69z"/>
<path d="M4078 1332 c-28 -3 -72 -64 -125 -173 -21 -45 -26 -49 -58 -49 -31 0
-35 -3 -35 -25 0 -23 3 -25 50 -25 l49 0 62 109 c58 105 62 110 97 113 l36 3
-25 26 c-17 18 -32 24 -51 21z"/>
<path d="M438 1313 c-15 -15 -15 -18 0 -42 29 -48 39 -51 163 -51 l118 0 18
-30 18 -30 17 22 c22 29 22 37 -1 67 -17 22 -22 23 -149 22 -121 -2 -131 0
-137 18 -10 33 -29 43 -47 24z"/>
<path d="M814 1218 c-16 -35 -42 -84 -59 -110 -26 -41 -35 -48 -63 -48 -30 0
-33 -2 -30 -27 3 -26 7 -28 50 -31 l47 -3 32 63 c59 119 89 158 121 158 30 0
34 10 18 41 -8 14 -21 19 -49 19 -36 0 -38 -2 -67 -62z"/>
<path d="M3733 1224 c-17 -26 -16 -28 17 -90 33 -62 34 -66 22 -117 -6 -28
-14 -61 -17 -73 -5 -15 0 -23 21 -32 14 -7 28 -11 29 -10 1 2 9 42 17 90 l15
87 -29 53 c-28 51 -32 98 -8 98 6 0 10 5 10 10 0 6 -13 10 -30 10 -21 0 -35
-8 -47 -26z"/>
<path d="M2054 1156 c-3 -15 -4 -30 0 -33 3 -3 49 -8 103 -11 l97 -5 -27 -21
c-22 -18 -25 -26 -19 -49 l7 -27 94 54 95 54 60 -35 c102 -57 215 -113 229
-113 8 0 21 8 30 18 14 16 9 20 -79 67 -52 27 -94 53 -94 57 0 3 15 8 33 10
25 2 33 8 35 27 4 23 2 24 -45 17 -136 -19 -307 -16 -475 11 -34 5 -38 3 -44
-21z"/>
<path d="M832 1095 c-18 -40 8 -85 51 -86 87 -2 127 -12 127 -29 0 -6 -4 -8
-10 -5 -5 3 -10 2 -10 -4 0 -16 48 -210 55 -221 8 -13 45 -13 45 0 0 39 -37
169 -53 187 -32 36 -13 38 23 3 31 -31 34 -32 63 -18 l30 14 -72 62 -72 62
-64 0 c-62 0 -65 1 -80 30 -9 17 -17 30 -19 30 -1 0 -8 -11 -14 -25z"/>
<path d="M2800 1108 c0 -7 10 -29 22 -48 11 -19 31 -58 44 -86 l23 -52 -35 11
c-27 8 -38 8 -49 -4 -12 -12 -2 -21 78 -69 l92 -55 5 -160 c3 -88 9 -166 13
-172 5 -7 17 -13 28 -13 20 0 21 4 14 108 l-6 107 24 -26 c18 -20 31 -26 51
-22 14 3 26 8 26 12 0 3 -27 42 -61 86 -35 47 -92 144 -137 237 -71 145 -79
157 -104 157 -16 1 -28 -4 -28 -11z"/>
<path d="M2065 986 c-16 -13 -57 -38 -89 -57 -50 -28 -58 -30 -52 -13 17 40
17 50 -2 67 -19 17 -20 16 -42 -40 -39 -97 -87 -192 -123 -241 -131 -183 -134
-188 -112 -212 17 -19 20 -16 72 65 30 47 59 85 64 85 5 0 9 -13 9 -30 0 -19
5 -31 15 -31 8 -1 20 -2 26 -3 7 -1 11 34 11 102 l-1 103 99 64 c54 35 111 71
127 79 52 28 54 32 47 59 -8 33 -11 33 -49 3z"/>
<path d="M2609 978 c0 -2 -9 -43 -19 -93 l-19 -89 31 -55 c30 -52 31 -55 15
-83 l-16 -28 32 0 c25 0 36 7 50 31 17 30 17 31 -18 90 l-34 59 16 72 c15 68
15 72 -2 85 -17 12 -34 17 -36 11z"/>
<path d="M2092 904 l-23 -16 28 -25 c104 -91 107 -93 171 -93 55 0 63 -3 78
-25 21 -32 30 -32 38 0 4 16 0 34 -10 50 -15 23 -23 25 -85 25 -52 0 -74 4
-87 18 -93 88 -86 83 -110 66z"/>
<path d="M3694 899 c-22 -24 -23 -23 88 -77 43 -20 78 -40 78 -44 0 -5 -13 -8
-30 -8 -23 0 -31 -5 -36 -25 -4 -14 -4 -28 -1 -32 8 -7 220 18 230 27 5 4 -45
36 -110 70 -65 35 -135 74 -155 87 -45 28 -41 28 -64 2z"/>
<path d="M1198 844 c-18 -18 -25 -9 108 -122 l39 -34 -37 7 c-34 5 -38 4 -44
-20 -3 -14 -4 -29 0 -32 3 -3 41 -8 83 -11 43 -2 85 -8 94 -13 8 -4 49 -52 89
-106 92 -121 94 -123 119 -123 23 0 36 16 21 25 -11 7 -110 150 -110 160 0 3
14 -2 31 -10 17 -9 32 -15 34 -13 8 10 26 50 23 53 -2 1 -39 13 -83 25 -79 22
-106 34 -148 70 -136 113 -193 160 -197 160 -3 0 -13 -7 -22 -16z"/>
<path d="M2410 742 c-28 -48 -58 -98 -65 -112 -9 -17 -24 -26 -44 -28 -28 -3
-29 -5 -19 -28 9 -19 19 -24 47 -24 36 0 37 1 99 113 l62 113 36 -4 c34 -4 35
-3 32 24 -3 25 -7 28 -50 30 l-48 3 -50 -87z"/>
<path d="M3424 756 c-66 -62 -75 -67 -216 -116 -142 -50 -148 -53 -148 -79 l0
-28 97 34 c53 18 100 32 105 31 5 -2 1 -12 -10 -23 -15 -16 -17 -25 -9 -42 6
-13 13 -23 16 -23 4 0 32 33 63 73 l56 73 109 13 c168 20 202 32 203 70 0 10
-10 12 -42 7 -24 -4 -72 -10 -108 -13 l-65 -6 23 26 c17 17 22 32 17 46 -3 12
-10 21 -14 21 -4 0 -39 -29 -77 -64z"/>
<path d="M3725 783 c-3 -21 -13 -69 -22 -108 -16 -70 -17 -70 -29 -40 -12 29
-48 43 -60 24 -7 -12 48 -128 84 -178 l32 -44 0 44 c0 24 11 106 24 182 22
132 22 138 5 147 -26 15 -28 13 -34 -27z"/>
<path d="M965 796 c-11 -7 -57 -34 -102 -61 -46 -27 -81 -50 -80 -51 2 -2 83
-8 181 -14 147 -9 181 -9 187 2 13 19 11 35 -3 35 -86 5 -188 17 -188 23 0 4
11 13 25 20 29 15 30 20 13 42 -11 14 -16 14 -33 4z"/>
<path d="M1207 733 c-3 -16 -20 -59 -38 -98 l-32 -70 -10 33 c-8 26 -15 32
-39 32 -23 0 -28 -4 -24 -17 12 -38 36 -166 36 -189 0 -13 4 -24 10 -24 12 0
36 46 100 198 49 118 51 125 34 143 -23 26 -30 24 -37 -8z"/>
<path d="M2150 720 l-21 -41 55 -93 c70 -117 71 -118 51 -155 l-16 -31 31 0
c24 0 33 6 46 33 15 32 15 33 -47 140 l-62 108 16 34 c9 19 13 35 8 35 -5 0
-16 3 -25 6 -10 4 -21 -7 -36 -36z"/>
<path d="M2438 635 c-10 -22 -9 -32 3 -53 l15 -27 133 0 133 0 14 -28 c12 -23
18 -26 34 -17 24 13 24 12 0 60 l-20 40 -129 0 c-128 0 -130 0 -150 26 l-20
26 -13 -27z"/>
<path d="M2088 592 c-10 -2 -31 -28 -48 -58 -31 -53 -45 -65 -52 -43 -2 5 -55
26 -117 45 -107 32 -114 33 -127 17 -19 -25 -17 -43 4 -43 10 0 51 -11 91 -25
41 -13 78 -22 84 -18 5 3 7 1 3 -5 -3 -6 -19 -13 -35 -17 -24 -5 -28 -11 -27
-36 0 -16 2 -29 3 -29 1 0 42 13 90 29 85 29 89 31 118 80 26 45 33 51 62 51
37 0 39 6 17 35 -15 20 -33 25 -66 17z"/>
<path d="M2859 521 c-71 -25 -77 -29 -112 -83 -32 -49 -42 -58 -67 -58 -28 0
-29 -1 -18 -25 12 -27 18 -28 66 -19 23 5 36 17 56 55 30 53 45 67 55 50 4 -6
56 -26 116 -45 110 -34 110 -34 128 -14 20 24 22 36 5 35 -7 -1 -46 9 -87 22
-48 15 -87 21 -110 17 -44 -7 -29 6 27 24 36 11 42 17 42 42 0 33 -1 33 -101
-1z"/>
<path d="M3163 540 c-13 -5 -23 -11 -23 -13 0 -3 29 -40 64 -83 63 -77 70 -98
26 -74 -18 10 -24 8 -36 -7 -7 -10 -14 -23 -14 -28 0 -6 40 -21 90 -34 49 -13
95 -29 101 -37 10 -12 39 -20 39 -10 0 17 -206 296 -218 295 -4 0 -17 -4 -29
-9z"/>
<path d="M2523 496 c-16 -34 -16 -35 19 -83 20 -26 50 -74 67 -105 31 -55 32
-57 16 -88 -18 -36 -19 -35 12 -44 19 -6 25 -1 43 33 l20 41 -61 104 c-61 106
-66 127 -37 164 8 9 2 12 -26 12 -32 0 -38 -5 -53 -34z"/>
<path d="M1793 363 l7 -108 -25 28 c-20 23 -31 28 -51 23 -15 -4 -24 -12 -21
-19 9 -24 128 -177 138 -177 10 0 11 241 1 310 -6 38 -11 46 -31 48 l-24 4 6
-109z"/>
<path d="M3105 369 l-60 -92 -3 35 c-3 33 -18 47 -53 48 -7 0 -4 -239 4 -246
3 -3 13 8 21 24 9 17 52 82 96 145 44 63 80 121 80 129 0 8 -6 22 -13 31 -11
16 -19 7 -72 -74z"/>
<path d="M2049 418 c-14 -10 -13 -16 9 -55 l25 -45 126 3 125 4 16 -28 c19
-33 23 -34 40 -1 12 22 12 29 -1 52 l-15 27 -133 0 -133 0 -14 28 c-16 30 -21
31 -45 15z"/>
<path d="M1520 369 c-19 -27 -47 -66 -62 -86 -28 -36 -35 -53 -20 -53 15 1
315 109 323 117 5 5 6 18 3 30 -5 17 -10 20 -23 14 -29 -16 -174 -61 -179 -56
-3 3 3 14 12 24 19 21 14 61 -7 61 -7 0 -28 -23 -47 -51z"/>
<path d="M2408 279 c-32 -55 -58 -105 -58 -110 0 -5 -18 -9 -41 -9 -36 0 -40
-2 -37 -22 3 -20 10 -23 50 -26 l48 -3 34 54 c19 30 47 80 63 111 25 51 30 56
60 56 31 0 32 1 21 25 -9 20 -19 25 -47 25 -35 0 -37 -3 -93 -101z"/>
</g>
</svg>
