<?xml version="1.0" standalone="no"?>
<!DOCTYPE svg PUBLIC "-//W3C//DTD SVG 20010904//EN"
 "http://www.w3.org/TR/2001/REC-SVG-20010904/DTD/svg10.dtd">
<svg version="1.0" xmlns="http://www.w3.org/2000/svg"
 width="1280.000000pt" height="848.000000pt" viewBox="0 0 1280.000000 848.000000"
 preserveAspectRatio="xMidYMid meet">
<metadata>
Created by potrace 1.15, written by Peter Selinger 2001-2017
</metadata>
<g transform="translate(0.000000,848.000000) scale(0.100000,-0.100000)"
fill="#000000" stroke="none">
<path d="M3288 8463 c-25 -29 -46 -75 -79 -179 -38 -121 -60 -166 -95 -193
-30 -23 -70 -28 -77 -8 -8 25 14 88 53 148 66 102 51 176 -40 197 -28 7 -63
12 -76 12 -37 0 -70 -40 -83 -100 -15 -69 -25 -82 -57 -69 -70 26 -148 -2
-177 -64 -54 -112 24 -248 144 -251 36 -1 40 -3 46 -36 5 -19 8 -102 8 -185
-1 -123 -5 -166 -24 -238 -73 -283 -241 -516 -489 -679 -31 -21 -60 -38 -63
-38 -4 0 -10 15 -14 33 -4 17 -33 113 -65 212 -32 99 -64 208 -71 243 -16 83
-7 170 23 224 l23 43 81 5 c49 3 88 11 98 19 52 43 62 143 21 203 -27 40 -96
78 -141 78 -39 0 -96 -31 -111 -61 -8 -14 -13 -67 -13 -129 -1 -126 -13 -167
-59 -197 -40 -27 -51 -21 -83 40 -44 88 -6 161 171 327 68 63 129 127 137 142
23 44 18 86 -14 118 -54 53 -135 57 -202 10 -29 -21 -31 -26 -27 -69 2 -25 14
-72 26 -105 22 -58 22 -59 3 -80 -11 -11 -35 -47 -55 -78 -35 -55 -77 -88
-113 -88 -27 0 -12 132 32 270 21 66 38 146 41 187 l6 72 -36 6 c-40 8 -106
-10 -113 -30 -3 -7 5 -46 17 -86 32 -106 31 -199 -4 -266 -15 -28 -31 -54 -36
-57 -13 -9 -57 70 -86 157 -30 90 -33 184 -9 289 16 68 16 72 -2 85 -10 7 -42
13 -71 13 -44 0 -58 -5 -88 -31 -58 -52 -49 -95 41 -191 56 -58 74 -92 74
-133 0 -19 -4 -23 -17 -18 -43 15 -81 56 -126 136 -59 106 -87 131 -142 124
-61 -9 -85 -43 -85 -122 0 -61 1 -65 30 -80 19 -10 53 -15 94 -14 78 2 94 -9
232 -154 249 -260 418 -598 558 -1112 123 -451 203 -872 251 -1310 32 -284 29
-870 -3 -1094 l-7 -45 -136 165 c-271 327 -386 497 -469 692 -68 160 -92 268
-97 444 -3 84 -2 168 1 188 l7 35 31 -16 c41 -21 116 -14 157 15 27 19 31 28
31 67 0 91 -46 144 -124 144 -64 0 -84 -14 -100 -72 -8 -29 -17 -78 -21 -108
-7 -57 -35 -132 -54 -144 -15 -9 -28 28 -36 101 -8 68 18 195 59 288 15 31 26
63 26 70 0 7 -16 27 -35 44 -35 31 -78 41 -90 21 -3 -5 -14 -10 -25 -10 -18 0
-40 -44 -40 -79 0 -9 16 -49 35 -90 27 -55 35 -85 35 -127 0 -30 -2 -54 -5
-54 -2 0 -26 23 -52 51 -26 29 -62 58 -80 65 -44 19 -104 18 -132 -2 -57 -40
-78 -161 -41 -234 16 -32 28 -41 62 -51 47 -12 106 -6 148 16 28 14 29 14 53
-28 14 -23 77 -161 142 -307 155 -352 226 -486 382 -725 72 -110 146 -231 165
-270 104 -207 141 -423 118 -695 -21 -249 -59 -415 -219 -955 -117 -396 -131
-469 -161 -808 -11 -122 -31 -337 -44 -477 -39 -400 -49 -611 -43 -870 5 -206
13 -294 43 -502 l7 -48 99 0 100 0 -7 98 c-6 87 -20 244 -71 802 -45 490 -23
913 62 1206 59 207 111 304 309 584 198 279 310 494 401 767 52 154 76 270 99
473 28 249 58 378 115 490 31 62 100 147 154 193 43 36 47 37 100 31 92 -11
120 -1 157 57 60 95 48 173 -34 216 -45 23 -143 23 -182 0 -28 -17 -30 -22
-32 -85 -3 -116 -59 -230 -145 -292 -53 -39 -72 -39 -64 -2 4 19 55 346 56
358 0 0 20 1 45 1 61 0 99 28 103 76 4 46 -26 108 -60 125 -73 34 -169 -74
-154 -172 l7 -41 -34 50 c-57 84 -122 98 -185 41 -35 -33 -37 -38 -37 -96 0
-57 2 -64 33 -91 36 -32 58 -35 117 -14 68 25 73 22 77 -44 5 -99 -3 -109 -54
-66 -54 46 -148 52 -218 15 -20 -11 -30 -56 -32 -135 -2 -95 9 -105 145 -129
43 -7 82 -17 86 -22 5 -5 2 -67 -5 -139 -79 -753 -241 -1214 -536 -1528 -40
-42 -76 -77 -79 -77 -4 0 4 37 18 83 74 252 166 692 212 1012 55 385 65 529
66 905 0 442 -10 556 -120 1291 -30 202 -64 442 -75 534 l-20 168 48 56 c98
117 259 274 325 318 83 55 197 101 292 118 l70 12 38 -34 c72 -64 125 -66 176
-8 94 107 48 265 -77 265 -57 0 -121 -19 -131 -39 -5 -9 -11 -38 -15 -65 -8
-61 -20 -76 -60 -76 -17 0 -56 -7 -86 -15 -62 -17 -140 -20 -140 -6 0 5 27 49
59 98 65 97 156 190 216 221 58 29 145 46 197 38 l45 -7 5 -72 c3 -47 11 -83
23 -101 17 -26 22 -28 72 -24 74 6 95 29 101 105 5 76 -7 91 -82 103 -61 10
-86 23 -86 46 0 10 14 14 49 14 43 0 59 -7 117 -46 79 -54 128 -65 163 -37 43
35 46 149 5 194 -22 24 -80 25 -115 1 -110 -74 -126 -82 -155 -82 -42 0 -49
12 -29 50 26 49 81 78 191 99 54 11 107 22 116 26 28 11 48 64 48 125 0 49 -4
61 -27 85 -38 38 -83 55 -142 55 -75 0 -96 -12 -116 -65 -14 -35 -17 -63 -12
-120 l5 -74 -40 -36 c-57 -52 -196 -141 -281 -180 -76 -35 -185 -70 -193 -62
-7 7 35 172 62 245 58 152 140 286 232 376 49 47 51 48 85 37 42 -14 77 -7
135 26 46 26 62 54 62 108 0 49 -16 85 -58 128 -33 34 -40 37 -92 37 -42 0
-61 -5 -72 -17z m-333 -286 c31 -48 29 -210 -5 -329 -19 -67 -30 -53 -65 85
-16 65 -19 87 -9 87 7 0 22 12 33 26 23 29 29 101 11 135 -16 29 15 25 35 -4z"/>
<path d="M7818 8463 c-26 -30 -44 -73 -83 -198 -31 -100 -44 -126 -75 -157
-24 -25 -47 -38 -64 -38 -23 0 -26 4 -26 38 0 27 13 59 45 112 48 81 55 121
31 169 -12 23 -26 30 -76 41 -101 22 -123 6 -155 -113 -13 -48 -19 -58 -33
-52 -9 4 -37 10 -61 13 -143 17 -208 -183 -91 -282 32 -27 103 -51 125 -42 7
2 16 -3 20 -12 14 -35 18 -269 6 -352 -34 -227 -148 -447 -321 -620 -74 -75
-226 -190 -250 -190 -5 0 -11 15 -15 33 -4 17 -33 113 -65 212 -89 280 -98
365 -48 462 l24 48 81 5 c93 6 113 18 138 85 29 75 -10 160 -89 196 -68 31
-124 21 -171 -31 -17 -19 -21 -40 -25 -150 -5 -138 -17 -170 -71 -197 -30 -15
-52 2 -74 62 -14 35 -15 49 -5 86 18 65 57 114 180 229 159 148 178 181 137
241 -43 63 -134 81 -201 40 -56 -35 -58 -60 -18 -174 25 -72 26 -79 10 -88 -9
-5 -33 -37 -54 -70 -37 -61 -82 -99 -118 -99 -17 0 -18 6 -13 74 4 40 23 127
43 192 21 68 39 150 42 191 5 71 4 72 -22 79 -32 8 -86 -2 -111 -20 -18 -13
-18 -16 3 -87 43 -147 36 -242 -22 -314 l-24 -29 -36 72 c-53 106 -70 180 -63
282 3 47 13 104 21 127 14 41 14 43 -7 58 -12 9 -43 15 -74 15 -44 0 -58 -5
-88 -31 -56 -50 -46 -98 39 -187 63 -67 76 -90 76 -132 l0 -30 -39 20 c-43 22
-62 45 -111 138 -45 86 -82 116 -133 109 -55 -8 -79 -35 -85 -96 -9 -99 14
-122 123 -120 77 2 92 -8 237 -160 194 -202 378 -531 482 -860 145 -461 268
-1047 322 -1541 31 -286 28 -961 -4 -1119 l-7 -34 -151 184 c-83 101 -178 221
-213 267 -174 230 -287 470 -325 689 -16 88 -21 293 -10 351 l6 31 31 -15 c40
-21 115 -14 156 15 28 20 31 28 31 72 0 88 -46 139 -124 139 -82 0 -95 -19
-116 -165 -13 -89 -29 -133 -53 -154 -15 -11 -18 -10 -28 15 -6 16 -11 67 -11
114 0 88 20 170 67 277 l23 52 -39 36 c-38 34 -81 46 -94 25 -3 -5 -15 -10
-25 -10 -14 0 -22 -11 -30 -40 -10 -37 -8 -47 24 -118 33 -74 39 -102 37 -167
l-1 -29 -57 56 c-71 68 -89 78 -148 78 -38 0 -52 -5 -75 -28 -50 -51 -64 -146
-31 -219 16 -34 27 -44 58 -52 60 -17 89 -13 173 23 19 8 23 0 187 -369 155
-350 205 -444 356 -675 234 -358 287 -493 303 -775 15 -279 -37 -555 -222
-1165 -49 -159 -110 -398 -128 -500 -9 -47 -25 -193 -36 -325 -11 -132 -29
-328 -40 -435 -40 -405 -44 -483 -45 -785 0 -298 9 -420 43 -620 l7 -40 98 -3
97 -3 0 34 c0 49 -16 248 -50 607 -44 476 -54 653 -47 865 7 217 33 405 77
571 60 224 113 328 318 617 157 221 185 267 272 449 125 263 186 460 215 698
60 497 101 610 281 772 40 37 41 37 110 32 39 -4 81 -1 96 5 40 15 88 104 88
162 0 41 -4 51 -35 78 -42 37 -104 55 -161 46 -54 -8 -94 -38 -87 -65 9 -32
-16 -149 -43 -202 -32 -63 -81 -117 -134 -147 l-43 -24 6 29 c4 16 18 103 32
193 14 90 27 166 29 169 3 2 26 5 51 7 86 5 119 71 77 155 -33 66 -90 71 -148
14 -40 -41 -61 -106 -46 -146 15 -41 0 -34 -26 13 -47 82 -127 102 -188 46
-62 -57 -56 -159 12 -203 22 -15 32 -15 72 -5 106 28 98 30 105 -39 4 -37 3
-69 -4 -81 -10 -19 -12 -19 -44 10 -47 41 -100 54 -164 40 -28 -6 -58 -17 -66
-25 -17 -18 -27 -82 -23 -153 4 -69 25 -85 136 -104 46 -8 87 -18 92 -23 4 -5
0 -88 -10 -184 -74 -711 -241 -1174 -540 -1493 -34 -37 -64 -66 -66 -64 -2 2
23 109 55 238 158 621 228 1123 238 1684 7 435 -8 604 -118 1345 -27 184 -61
422 -74 529 l-25 194 84 96 c222 255 378 360 583 396 l72 13 40 -38 c75 -72
150 -59 196 33 42 85 26 181 -36 212 -52 27 -167 13 -196 -23 -7 -9 -13 -27
-13 -41 0 -14 -5 -43 -11 -63 -9 -35 -13 -38 -47 -38 -20 0 -62 -7 -92 -15
-61 -16 -126 -20 -134 -7 -8 13 84 150 142 214 29 31 74 70 100 87 65 41 163
66 225 57 l47 -7 0 -57 c0 -35 8 -74 20 -101 l20 -43 57 4 c78 7 103 36 103
117 0 70 -8 78 -85 91 -60 10 -85 23 -85 46 0 10 14 14 49 14 42 0 59 -7 115
-44 109 -76 173 -70 196 16 23 84 -14 158 -78 158 -38 0 -61 -12 -126 -64 -39
-31 -118 -47 -130 -27 -11 17 30 77 69 101 18 11 69 27 112 35 132 25 163 35
163 56 0 11 5 19 10 19 6 0 10 30 10 70 0 62 -3 74 -25 96 -35 35 -86 54 -144
54 -75 0 -96 -12 -116 -65 -14 -35 -17 -62 -12 -122 4 -56 2 -80 -7 -87 -76
-63 -185 -137 -261 -176 -86 -45 -230 -98 -240 -88 -7 7 31 157 61 238 54 150
140 293 233 384 48 47 50 48 84 37 54 -18 148 14 181 61 36 52 6 176 -54 218
-37 27 -130 28 -152 3z m-331 -290 c15 -22 18 -48 17 -138 0 -107 -23 -225
-43 -225 -12 0 -27 42 -46 123 -19 85 -19 84 3 92 37 11 57 109 32 156 -17 31
16 24 37 -8z"/>
<path d="M12335 8443 c-13 -21 -43 -96 -66 -168 -35 -108 -48 -136 -79 -167
-25 -26 -47 -38 -65 -38 -27 0 -27 1 -23 45 4 30 20 66 47 108 31 47 41 73 41
103 0 62 -18 86 -75 101 -100 26 -134 11 -156 -69 -22 -83 -31 -99 -48 -92 -9
4 -40 9 -68 12 -51 4 -54 3 -92 -35 -103 -103 -36 -277 111 -288 l43 -3 8 -53
c5 -30 6 -119 4 -199 -4 -117 -10 -162 -31 -235 -55 -190 -174 -384 -317 -519
-64 -61 -209 -166 -229 -166 -4 0 -11 17 -15 38 -4 20 -33 119 -65 218 -73
222 -87 301 -71 381 6 31 21 72 34 90 22 32 24 33 96 33 69 0 75 2 106 33 22
22 35 47 40 75 13 81 -55 172 -141 188 -46 9 -78 -1 -116 -35 l-32 -29 -6
-129 c-5 -139 -14 -166 -66 -200 -26 -17 -27 -16 -50 12 -37 46 -47 96 -30
145 22 65 59 110 188 231 155 146 175 191 110 252 -57 53 -148 53 -204 -1 -35
-32 -36 -64 -3 -142 28 -67 31 -95 11 -107 -7 -4 -30 -34 -50 -66 -38 -59 -85
-97 -120 -97 -17 0 -18 6 -12 72 3 39 24 132 46 206 27 90 40 155 40 193 0 54
-2 59 -25 65 -31 8 -84 -2 -108 -20 -17 -14 -17 -17 5 -88 31 -99 32 -216 1
-274 -40 -75 -47 -74 -87 8 -46 92 -66 166 -66 243 0 53 18 151 35 196 8 22
-34 39 -95 39 -41 0 -55 -5 -85 -31 -24 -21 -35 -40 -35 -58 0 -32 44 -104 90
-146 39 -36 60 -75 60 -110 0 -29 -10 -31 -49 -11 -30 16 -63 62 -104 143 -46
90 -103 121 -166 89 -35 -18 -51 -55 -51 -115 0 -69 21 -85 117 -88 87 -3 100
-10 212 -123 240 -240 430 -592 557 -1035 131 -454 230 -946 280 -1390 31
-280 28 -1018 -4 -1140 -7 -24 -17 -14 -137 132 -246 299 -331 417 -419 585
-60 113 -109 245 -132 353 -19 88 -29 270 -20 357 l7 66 37 -15 c47 -19 111
-12 151 16 28 20 31 28 31 72 0 87 -46 139 -122 139 -80 0 -98 -26 -117 -163
-11 -79 -27 -126 -54 -162 -14 -19 -16 -17 -27 25 -27 99 -9 226 50 371 l31
74 -33 28 c-18 15 -43 30 -56 33 -26 7 -87 -19 -96 -42 -12 -32 -5 -86 18
-132 37 -73 49 -120 41 -159 l-6 -36 -57 55 c-70 68 -88 78 -147 78 -38 0 -52
-5 -75 -28 -52 -53 -63 -164 -23 -233 30 -51 129 -62 205 -23 16 9 31 14 33
12 10 -11 93 -186 148 -313 179 -414 210 -473 397 -760 245 -378 285 -493 284
-825 0 -258 -30 -439 -133 -795 -27 -93 -78 -271 -114 -396 -84 -289 -112
-439 -137 -729 -11 -129 -31 -352 -45 -495 -56 -591 -59 -890 -10 -1240 23
-159 11 -145 122 -145 l96 0 -7 118 c-4 64 -20 259 -36 432 -16 173 -35 376
-42 450 -18 211 -16 640 6 785 34 239 89 431 163 580 39 76 109 184 263 400
72 101 126 193 194 330 147 295 211 492 242 744 57 476 90 575 239 729 l81 83
56 -7 c92 -11 123 0 160 54 24 35 33 60 36 102 4 54 3 57 -32 88 -43 38 -106
56 -161 47 -70 -11 -81 -24 -88 -108 -4 -41 -16 -100 -27 -131 -25 -64 -90
-141 -149 -174 -45 -25 -48 -22 -31 38 5 19 19 100 30 179 11 79 23 148 26
153 3 5 13 7 21 3 25 -9 79 5 102 26 42 39 15 157 -41 178 -78 29 -179 -97
-149 -184 l11 -30 -23 29 c-59 78 -72 88 -120 93 -43 5 -49 3 -81 -29 -60 -60
-57 -154 6 -201 25 -19 32 -19 75 -8 107 28 99 30 107 -38 5 -39 3 -68 -4 -82
-12 -21 -12 -21 -43 9 -43 41 -100 55 -166 41 -28 -6 -58 -17 -66 -25 -17 -18
-27 -82 -23 -153 4 -69 26 -87 130 -102 115 -17 110 -8 92 -179 -64 -618 -184
-1024 -392 -1335 -58 -87 -210 -261 -219 -251 -3 2 7 44 20 93 90 310 182 772
226 1128 87 703 75 1106 -58 1975 -46 301 -71 481 -91 645 l-17 150 92 105
c205 232 328 322 507 369 118 31 146 33 158 11 12 -23 89 -70 114 -70 116 0
173 230 72 291 -36 22 -112 24 -166 5 -36 -13 -39 -20 -57 -116 -7 -41 -11
-45 -38 -48 -16 -1 -60 -9 -97 -17 -74 -16 -134 -19 -142 -7 -7 11 108 180
157 230 88 90 214 142 310 128 l44 -7 7 -71 c3 -39 14 -83 23 -99 15 -26 23
-29 66 -29 40 0 53 5 78 29 26 26 29 37 29 89 0 71 -8 79 -85 92 -60 10 -85
23 -85 46 0 10 14 14 45 14 46 0 88 -18 154 -65 39 -28 97 -42 120 -28 53 32
65 152 20 200 -41 43 -92 31 -183 -41 -37 -29 -118 -47 -129 -29 -10 17 26 75
62 98 20 13 74 31 121 40 132 26 160 36 160 57 0 10 5 18 10 18 17 0 12 133
-6 159 -35 49 -159 78 -227 52 -40 -16 -61 -85 -53 -179 l6 -77 -58 -46 c-116
-94 -259 -172 -380 -209 -40 -12 -75 -20 -77 -18 -9 9 47 205 84 294 49 119
115 225 194 309 l62 67 45 -13 c41 -11 50 -9 98 11 70 30 92 59 92 122 0 102
-60 168 -154 168 -53 0 -57 -2 -81 -37z m-318 -270 c25 -39 25 -235 -1 -310
-10 -29 -21 -53 -26 -53 -18 0 -67 203 -50 208 6 2 20 13 31 25 21 23 27 104
9 138 -17 31 16 24 37 -8z"/>
<path d="M1498 4991 c-18 -16 -53 -66 -77 -112 -62 -118 -102 -180 -112 -173
-18 11 -8 50 30 126 44 86 44 106 -1 143 -31 26 -76 32 -109 15 -23 -13 -49
-61 -49 -93 0 -23 -4 -24 -56 -24 -92 0 -131 -46 -113 -133 10 -46 48 -77 103
-85 41 -7 44 -9 50 -43 9 -56 7 -170 -4 -242 -35 -219 -164 -421 -350 -547
l-65 -43 -46 142 c-71 218 -81 305 -42 381 17 34 83 66 136 67 l37 0 0 46 c0
25 -5 65 -11 88 -10 42 -12 44 -57 49 -56 7 -111 -16 -129 -53 -7 -14 -13 -58
-13 -98 0 -109 -32 -159 -73 -114 -61 67 -5 192 134 299 59 46 59 47 59 98 0
61 -8 71 -70 80 -67 10 -78 -7 -93 -142 -8 -70 -19 -120 -31 -137 -18 -29 -61
-50 -83 -42 -22 9 -15 79 16 168 41 117 46 149 27 187 -20 37 -39 39 -71 6
-30 -29 -30 -23 -5 -110 24 -85 25 -116 3 -162 l-17 -36 -37 40 c-21 22 -42
58 -48 79 -15 54 -13 151 4 198 28 80 -44 124 -122 76 -47 -28 -45 -67 6 -123
45 -49 61 -78 61 -106 0 -50 -52 -11 -100 76 -59 104 -80 114 -131 64 -22 -23
-29 -39 -29 -68 0 -63 17 -77 83 -70 l56 5 60 -61 c293 -306 499 -782 596
-1378 48 -300 57 -422 62 -862 2 -229 1 -417 -4 -416 -12 0 -205 224 -278 320
-186 250 -257 465 -247 748 2 35 5 42 14 33 7 -7 39 -12 74 -12 54 0 64 3 69
20 3 11 11 20 16 20 12 0 11 44 -2 73 -12 27 -58 57 -87 57 -54 0 -73 -28 -92
-138 -15 -83 -34 -109 -50 -67 -17 44 -11 118 15 195 39 114 33 160 -19 160
-44 0 -76 -25 -76 -59 0 -15 9 -63 20 -106 31 -121 24 -180 -12 -95 -32 77
-127 104 -187 54 -28 -23 -31 -31 -31 -84 0 -76 10 -84 124 -90 l91 -5 22 -41
c13 -23 45 -104 71 -180 80 -230 98 -264 280 -519 184 -260 231 -377 239 -607
8 -207 -16 -329 -141 -715 -141 -433 -156 -502 -163 -741 l-6 -172 36 0 c35 0
35 0 42 52 30 247 113 462 309 808 236 416 301 589 341 910 26 219 57 303 141
387 45 45 58 53 91 53 65 1 117 18 142 46 20 24 22 35 17 73 -12 93 -114 137
-168 72 -23 -27 -30 -45 -59 -161 -11 -46 -80 -127 -98 -116 -16 11 -30 99
-22 139 13 53 53 117 105 165 46 42 46 42 32 76 -20 47 -49 61 -97 47 -46 -14
-62 -53 -50 -118 5 -24 6 -43 3 -43 -3 0 -24 21 -47 46 -39 45 -42 46 -82 39
-29 -4 -44 -13 -48 -26 -4 -10 -13 -26 -22 -34 -17 -17 -13 -48 11 -80 12 -17
24 -20 79 -17 72 3 101 -13 95 -52 -3 -20 -8 -21 -87 -18 -47 2 -94 1 -106 -2
-27 -7 -45 -45 -45 -97 0 -56 38 -93 114 -110 l58 -13 -7 -95 c-25 -367 -89
-619 -218 -864 -61 -116 -199 -323 -205 -307 -2 4 17 115 42 246 110 587 156
994 156 1380 0 300 -13 413 -82 709 -56 244 -78 382 -78 500 l0 102 70 81
c140 162 271 242 409 250 51 3 97 -1 140 -12 70 -18 81 -14 107 35 34 66 2
141 -67 159 -55 15 -77 5 -129 -62 -60 -76 -81 -90 -141 -90 -28 1 -53 3 -56
5 -7 7 46 107 79 149 44 56 110 94 182 107 75 13 94 8 102 -28 18 -81 27 -102
44 -111 41 -22 93 10 109 68 12 41 -9 70 -58 78 -57 9 -71 21 -47 39 24 18 48
12 101 -25 68 -47 113 -44 138 9 22 48 22 64 -1 84 -25 23 -66 21 -132 -4
l-54 -21 -18 22 c-24 29 -10 46 46 60 157 40 176 53 176 122 0 41 -5 54 -29
79 -25 24 -37 29 -81 29 -70 0 -95 -26 -105 -108 -4 -33 -4 -66 0 -71 11 -19
-65 -78 -170 -132 -55 -29 -117 -63 -137 -76 -21 -13 -41 -23 -44 -23 -4 0 -5
33 -2 73 5 84 48 183 142 332 l56 89 58 1 c64 1 112 23 144 66 l20 26 -25 40
c-28 44 -72 83 -93 83 -7 0 -28 -13 -46 -29z"/>
<path d="M6021 4982 c-20 -21 -58 -81 -85 -133 -59 -114 -85 -151 -97 -144
-17 11 -9 46 32 129 45 92 44 105 -7 145 -64 50 -154 -2 -154 -89 0 -14 -10
-17 -56 -17 -82 0 -108 -23 -112 -97 -3 -51 0 -59 26 -85 20 -20 43 -31 75
-36 46 -7 46 -8 53 -53 10 -65 -3 -246 -21 -317 -51 -189 -200 -386 -366 -484
l-35 -21 -42 133 c-58 186 -63 210 -64 286 -1 87 19 126 75 152 23 10 60 19
81 19 l39 0 -6 73 c-3 39 -8 79 -12 88 -8 22 -90 31 -130 15 -49 -21 -58 -40
-63 -134 -6 -123 -34 -169 -75 -124 -61 67 -7 188 132 297 l61 48 0 57 c0 64
-1 64 -73 75 -41 6 -47 5 -63 -19 -10 -17 -20 -59 -25 -111 -4 -46 -10 -98
-14 -114 -8 -37 -60 -83 -89 -79 -35 5 -32 64 8 182 40 116 43 134 20 177 -12
24 -19 29 -37 23 -51 -15 -59 -49 -32 -138 19 -64 19 -110 -1 -152 l-17 -35
-25 23 c-64 60 -91 192 -57 288 16 46 9 72 -25 90 -29 15 -62 12 -97 -10 -49
-30 -45 -65 16 -135 51 -59 72 -115 41 -115 -21 0 -62 44 -85 90 -28 57 -65
100 -85 100 -10 0 -31 -10 -45 -23 -31 -26 -44 -92 -25 -127 11 -21 17 -22 69
-17 32 2 65 1 74 -4 25 -15 161 -181 226 -278 224 -332 370 -770 440 -1313 36
-281 48 -534 42 -943 l-2 -180 -66 70 c-333 354 -463 616 -463 936 0 105 1
109 19 99 11 -5 44 -10 75 -10 46 0 56 3 61 20 3 11 11 20 16 20 12 0 12 57
-1 81 -13 24 -61 49 -95 49 -37 0 -62 -31 -75 -97 -27 -137 -40 -160 -60 -107
-16 42 -11 105 15 188 27 84 31 126 15 156 -8 15 -16 17 -45 10 -72 -16 -77
-34 -44 -160 11 -44 19 -97 17 -117 l-3 -38 -22 47 c-39 85 -130 115 -192 62
-28 -23 -31 -31 -31 -84 0 -76 10 -84 124 -90 l90 -5 23 -40 c12 -22 39 -87
59 -145 94 -267 112 -301 279 -535 162 -228 210 -324 241 -485 17 -89 19 -269
4 -366 -17 -109 -65 -285 -125 -464 -139 -413 -179 -600 -173 -820 l3 -115 32
-3 c30 -3 32 -1 37 35 21 137 42 232 73 328 38 114 158 359 282 575 194 335
255 506 296 830 29 224 61 308 147 392 41 40 56 48 86 48 132 1 192 68 147
165 -18 37 -51 55 -99 55 -55 0 -78 -38 -117 -190 -7 -29 -25 -58 -51 -84
l-40 -40 -14 24 c-7 14 -13 49 -14 79 0 71 29 131 98 200 51 52 53 55 41 83
-17 40 -51 61 -88 53 -50 -11 -64 -36 -59 -105 2 -33 2 -60 -1 -60 -3 0 -24
21 -46 47 -41 46 -43 47 -81 38 -23 -6 -43 -19 -49 -31 -6 -12 -16 -28 -21
-35 -17 -22 3 -78 30 -89 13 -5 49 -6 80 -3 52 5 56 4 67 -20 23 -51 9 -60
-85 -52 -98 8 -119 4 -134 -31 -40 -86 10 -159 122 -179 l39 -6 -7 -106 c-25
-385 -109 -686 -261 -938 -57 -93 -165 -244 -165 -229 0 6 18 105 39 220 127
673 168 1061 158 1505 -6 278 -13 337 -78 616 -63 274 -70 320 -76 463 l-5
135 71 80 c185 212 361 290 548 241 35 -8 69 -13 76 -10 19 7 47 69 47 102 0
47 -34 90 -82 103 -56 15 -78 3 -136 -74 -24 -31 -53 -62 -64 -68 -20 -11
-116 -15 -125 -6 -6 7 32 81 69 135 41 59 119 108 194 122 91 16 92 15 118
-103 15 -64 95 -54 129 16 18 35 18 39 3 62 -11 16 -29 27 -55 31 -57 9 -71
21 -47 39 24 18 48 12 101 -25 68 -47 115 -45 138 8 21 48 21 66 1 86 -21 22
-68 20 -133 -4 -57 -22 -81 -16 -81 21 0 22 19 33 90 49 74 17 138 48 145 70
10 32 -13 104 -40 128 -38 32 -117 31 -150 -3 -22 -21 -25 -33 -25 -99 l0 -75
-52 -40 c-29 -21 -82 -53 -118 -71 -36 -18 -90 -47 -121 -66 -31 -19 -59 -34
-63 -34 -12 0 -6 98 10 151 21 69 41 110 123 242 65 106 67 108 98 102 51 -9
117 13 154 51 l33 34 -19 36 c-22 42 -79 94 -102 94 -9 0 -32 -17 -52 -38z"/>
<path d="M10562 4995 c-16 -14 -49 -62 -72 -107 -24 -46 -59 -108 -78 -138
-33 -52 -36 -54 -45 -33 -8 18 -1 40 33 112 43 90 43 90 25 118 -26 39 -45 52
-78 53 -55 0 -92 -32 -102 -90 -6 -36 -6 -36 -61 -36 -77 -2 -108 -26 -112
-86 -6 -84 29 -126 106 -131 41 -2 42 -3 48 -45 10 -67 -2 -260 -20 -327 -25
-89 -98 -232 -156 -302 -71 -88 -227 -210 -244 -192 -3 3 -26 70 -51 149 -56
174 -69 292 -40 353 20 42 82 77 138 77 l37 0 0 53 c0 28 -5 68 -10 88 -10 34
-13 37 -58 42 -56 6 -105 -11 -122 -44 -7 -12 -16 -64 -20 -116 -5 -68 -11
-98 -25 -113 -21 -23 -37 -15 -61 33 -35 66 25 177 149 276 64 50 67 55 67 95
0 57 -15 73 -77 81 -48 6 -53 5 -68 -18 -10 -16 -20 -64 -26 -129 -10 -109
-23 -140 -71 -167 -35 -20 -58 -8 -58 30 0 17 16 82 36 145 27 83 35 122 30
147 -9 50 -27 62 -65 42 -36 -18 -40 -50 -16 -129 19 -63 19 -119 -1 -158
l-16 -30 -25 23 c-64 61 -90 184 -59 279 16 47 16 54 1 76 -27 42 -95 44 -135
4 -32 -32 -25 -66 24 -118 61 -65 83 -122 48 -122 -24 0 -64 44 -92 100 -28
56 -58 90 -80 90 -53 0 -93 -84 -70 -144 10 -28 12 -29 73 -23 l62 6 45 -47
c349 -362 572 -949 649 -1707 21 -197 34 -626 25 -800 l-9 -169 -104 117
c-208 234 -318 405 -375 582 -34 105 -46 187 -46 313 0 98 1 102 19 92 11 -5
46 -10 78 -10 53 0 59 2 71 27 25 55 11 103 -38 128 -68 35 -113 7 -130 -84
-16 -83 -30 -131 -39 -131 -14 0 -31 50 -31 90 0 21 12 76 26 121 43 135 33
184 -32 169 -70 -16 -76 -36 -44 -152 11 -40 20 -93 20 -118 l-1 -45 -19 40
c-46 93 -134 124 -199 69 -28 -23 -31 -31 -31 -84 0 -78 16 -90 125 -90 44 0
85 -4 92 -8 16 -10 46 -81 100 -237 62 -178 115 -277 254 -473 221 -309 283
-494 259 -765 -15 -174 -42 -279 -165 -652 -104 -317 -145 -514 -145 -701 0
-129 5 -144 41 -144 22 0 30 5 33 23 2 12 11 67 19 123 19 117 70 279 131 408
23 50 99 192 168 316 246 440 288 552 329 860 34 265 61 341 152 432 40 40 54
48 85 48 102 1 162 40 162 106 0 71 -43 114 -114 114 -49 0 -84 -49 -105 -148
-14 -68 -43 -125 -75 -145 -33 -22 -32 -22 -45 14 -30 87 -2 176 86 265 52 53
54 57 43 84 -19 46 -44 63 -83 56 -56 -10 -71 -35 -64 -106 3 -33 4 -60 2 -60
-2 0 -24 21 -48 47 -44 46 -46 47 -83 38 -24 -6 -43 -19 -50 -33 -6 -13 -16
-28 -21 -33 -16 -16 -3 -58 24 -79 21 -16 35 -18 82 -14 63 7 85 -6 79 -48 -3
-22 -5 -23 -99 -20 -95 4 -97 3 -118 -23 -23 -31 -27 -80 -9 -120 14 -31 66
-60 123 -69 l41 -7 -8 -102 c-32 -424 -111 -699 -278 -968 -46 -74 -150 -217
-150 -207 0 3 11 64 25 136 140 746 169 999 170 1487 0 402 1 398 -81 751 -54
235 -74 363 -74 479 l0 90 65 73 c194 223 363 298 558 247 68 -18 79 -14 100
31 38 80 5 153 -77 168 -48 9 -72 -6 -126 -79 -22 -30 -50 -59 -61 -66 -21
-11 -116 -15 -126 -5 -9 9 59 124 98 165 48 50 102 79 174 92 75 14 92 3 101
-63 12 -87 61 -113 114 -59 59 58 45 115 -30 127 -51 8 -68 20 -53 35 19 19
61 13 101 -14 72 -50 127 -55 138 -11 4 13 12 28 19 32 10 5 10 15 1 42 -10
31 -15 35 -49 38 -21 2 -62 -6 -93 -18 -60 -22 -84 -16 -84 21 0 22 19 33 90
49 81 19 129 40 141 62 16 30 0 104 -28 133 -21 20 -35 25 -78 25 -83 0 -99
-19 -103 -119 -4 -80 -5 -82 -41 -111 -20 -17 -79 -53 -131 -80 -52 -27 -114
-61 -137 -75 l-42 -26 -7 26 c-18 71 19 176 122 345 l77 126 62 0 c69 0 121
25 144 67 11 20 10 29 -3 53 -21 39 -36 57 -66 77 -33 23 -43 22 -78 -8z"/>
</g>
</svg>
