<?xml version="1.0" standalone="no"?>
<!DOCTYPE svg PUBLIC "-//W3C//DTD SVG 20010904//EN"
 "http://www.w3.org/TR/2001/REC-SVG-20010904/DTD/svg10.dtd">
<svg version="1.0" xmlns="http://www.w3.org/2000/svg"
 width="500.000000pt" height="500.000000pt" viewBox="0 0 500.000000 500.000000"
 preserveAspectRatio="xMidYMid meet">
<metadata>
Created by potrace 1.16, written by Peter Selinger 2001-2019
</metadata>
<g transform="translate(0.000000,500.000000) scale(0.100000,-0.100000)"
fill="#000000" stroke="none">
<path d="M1998 4975 c-56 -30 -98 -81 -98 -120 0 -31 43 -93 143 -207 51 -59
74 -78 93 -78 14 0 24 3 22 8 -2 4 -20 40 -41 80 -21 40 -35 77 -32 82 11 18
54 10 108 -17 l52 -28 488 -3 487 -3 0 -33 c0 -39 26 -66 61 -66 72 0 273 90
266 120 -2 12 -17 14 -78 12 -101 -3 -112 8 -64 71 21 27 32 52 29 61 -8 21
-13 20 -76 -9 -74 -35 -84 -33 -91 16 -3 22 -8 44 -12 47 -4 4 -219 9 -478 12
l-472 5 -75 33 c-102 45 -170 50 -232 17z"/>
<path d="M2338 4563 c-29 -7 -20 -27 22 -46 22 -10 40 -22 40 -26 0 -3 -13
-12 -30 -18 -28 -11 -31 -9 -51 27 -24 42 -45 50 -135 50 l-54 0 -36 -55 c-21
-30 -35 -57 -33 -58 2 -2 33 -18 69 -35 36 -18 78 -43 93 -55 l28 -22 -36
-129 c-19 -71 -33 -131 -31 -133 2 -3 22 5 45 16 52 27 66 26 120 -4 55 -32
72 -31 133 2 l50 27 46 -18 c77 -29 83 -30 78 -15 -3 8 -28 100 -56 204 -57
210 -60 216 -154 264 -56 30 -72 34 -108 24z"/>
<path d="M2052 4336 c-102 -111 -94 -178 23 -188 l40 -3 13 104 c10 78 10 107
1 117 -19 23 -34 17 -77 -30z"/>
<path d="M1480 4220 c-118 -59 -392 -198 -609 -307 -217 -109 -399 -207 -405
-216 -9 -16 -4 -25 33 -58 68 -60 157 -100 248 -110 112 -11 277 -11 310 2 15
5 65 36 111 67 325 222 415 280 428 275 8 -3 14 -8 14 -12 0 -10 -295 -282
-326 -301 -13 -8 -24 -20 -24 -27 0 -21 202 -18 243 3 18 9 76 59 130 110 69
67 105 94 122 94 14 0 25 -3 25 -7 0 -8 -34 -60 -112 -169 -32 -44 -58 -85
-58 -90 0 -15 64 -52 120 -68 34 -10 92 -16 156 -16 l103 0 19 53 c11 28 26
71 33 95 11 37 16 43 38 40 22 -3 28 -13 53 -98 45 -157 42 -170 -73 -321 -88
-117 -169 -237 -169 -252 0 -18 36 -64 61 -77 14 -8 37 -4 94 16 l76 27 62
103 c34 57 68 104 75 104 22 0 25 -29 8 -95 -9 -35 -16 -69 -16 -75 0 -12 306
-15 313 -2 3 4 -2 40 -11 80 -14 64 -14 75 -1 83 23 14 32 6 81 -77 68 -116
73 -121 133 -143 77 -29 110 -27 140 7 44 49 42 56 -37 160 -101 133 -196 275
-203 305 -4 15 6 70 26 141 29 102 35 117 52 114 15 -2 30 -26 56 -93 l36 -90
120 1 c70 0 137 6 160 14 52 17 95 47 95 67 0 8 -38 67 -85 131 -47 63 -84
119 -82 125 10 31 46 10 143 -84 56 -54 118 -106 138 -114 37 -16 236 -22 236
-7 0 8 -64 70 -130 126 -99 85 -220 210 -211 219 13 13 51 -11 316 -192 l220
-151 185 0 c215 1 245 8 353 84 68 48 81 72 52 96 -8 6 -198 104 -422 216
-224 112 -495 249 -601 304 -241 124 -242 124 -359 38 l-52 -38 -3 -62 -3 -62
-123 -31 c-78 -19 -131 -38 -145 -51 -19 -18 -25 -19 -47 -7 -36 18 -75 16
-120 -7 -22 -11 -49 -20 -60 -20 -11 0 -38 9 -60 20 -45 23 -84 25 -120 7 -22
-11 -27 -10 -40 5 -9 12 -60 30 -134 48 -66 17 -125 35 -133 41 -8 7 -13 33
-13 69 l0 58 -72 46 c-52 33 -81 46 -107 46 -25 -1 -101 -34 -251 -110z"/>
<path d="M4384 3230 c-36 -14 -64 -59 -64 -101 0 -22 2 -39 4 -39 16 0 159 76
163 87 8 19 -36 63 -61 62 -12 0 -31 -4 -42 -9z"/>
<path d="M4200 3157 c-43 -15 -76 -70 -66 -110 7 -30 27 -35 46 -12 6 8 36 26
66 39 60 28 67 45 28 75 -31 24 -28 24 -74 8z"/>
<path d="M4410 3092 c-51 -30 -66 -44 -68 -64 -3 -24 31 -108 44 -108 3 0 32
26 64 59 56 55 60 62 60 105 0 58 -11 59 -100 8z"/>
<path d="M4530 3075 c0 -59 38 -134 102 -202 27 -29 61 -79 75 -110 23 -50 27
-72 27 -153 0 -73 -4 -103 -18 -130 -56 -106 -130 -155 -236 -153 -71 0 -113
15 -177 62 -42 30 -43 33 -43 87 0 64 -14 95 -64 144 l-36 34 6 73 c6 67 5 75
-22 120 -21 36 -28 61 -28 101 0 28 -3 52 -7 52 -11 0 -57 -72 -85 -135 -19
-41 -31 -90 -38 -155 -11 -101 -15 -110 -75 -136 -28 -13 -36 -13 -46 -2 -11
11 -49 94 -128 271 -11 27 -24 50 -28 53 -11 6 -279 -124 -279 -136 0 -6 11
-33 25 -60 14 -27 25 -54 25 -61 0 -20 41 -69 59 -69 36 0 117 -31 145 -55 16
-14 39 -25 50 -25 12 0 36 -8 54 -18 149 -80 315 -162 327 -162 8 0 41 -21 73
-47 149 -122 323 -144 488 -63 78 38 145 111 197 212 l37 74 0 132 c0 81 -4
132 -10 132 -5 0 -10 6 -10 14 0 32 -83 176 -129 223 -44 44 -190 133 -220
133 -6 0 -11 -19 -11 -45z"/>
<path d="M3468 3061 c-81 -40 -88 -47 -88 -96 0 -27 -7 -51 -20 -68 -11 -14
-20 -30 -20 -37 0 -21 30 -70 44 -70 25 0 346 160 346 172 0 14 -37 78 -44 78
-3 0 -47 -18 -97 -40 -103 -44 -109 -46 -109 -26 0 7 20 21 45 30 54 21 61 31
44 62 -16 30 -30 29 -101 -5z"/>
<path d="M4255 3035 c-16 -14 -37 -25 -45 -25 -27 0 -60 -30 -60 -55 0 -33 22
-115 31 -115 4 0 35 27 68 60 59 57 61 62 61 110 0 57 -10 62 -55 25z"/>
<path d="M4447 2929 c-63 -63 -62 -61 -31 -136 16 -40 29 -42 48 -5 8 15 31
42 50 60 20 19 36 41 36 49 0 30 -23 93 -34 92 -6 -1 -37 -28 -69 -60z"/>
<path d="M4258 2856 c-32 -29 -58 -57 -58 -63 0 -26 33 -103 45 -103 7 0 18
12 24 28 6 15 27 38 46 51 20 13 38 34 41 47 7 28 -13 94 -29 94 -7 0 -38 -24
-69 -54z"/>
<path d="M2196 2850 c-93 -20 -246 -69 -246 -79 0 -3 7 -15 16 -26 14 -19 15
-19 127 4 117 25 283 39 314 26 15 -5 10 -11 -28 -30 -86 -44 -88 -70 -11
-109 27 -14 63 -36 80 -50 16 -15 33 -26 37 -26 3 0 20 14 37 30 27 28 29 33
19 61 -6 17 -8 35 -5 40 3 5 51 -14 107 -43 99 -51 100 -52 74 -63 -43 -18
-187 -166 -187 -192 0 -13 -16 -43 -35 -69 -42 -54 -43 -69 -10 -134 14 -27
25 -63 25 -80 0 -27 -2 -30 -19 -21 -11 6 -33 34 -51 62 l-31 51 -82 -7 c-109
-9 -142 -24 -151 -65 -9 -47 -8 -92 5 -151 l11 -51 44 5 c25 2 53 12 63 21 30
27 49 20 47 -16 -1 -27 3 -34 22 -36 15 -2 27 -15 37 -39 15 -35 16 -35 58
-29 23 4 53 15 67 26 69 55 64 54 165 43 93 -10 95 -11 226 -89 73 -43 146
-94 163 -112 17 -19 47 -40 66 -48 38 -16 120 -91 120 -110 0 -14 -132 -213
-156 -236 -11 -10 -35 -31 -55 -48 -20 -16 -54 -57 -75 -90 -21 -34 -48 -63
-59 -66 -16 -4 -127 -151 -211 -280 -9 -15 -12 -15 -28 2 -14 14 -17 26 -11
58 4 23 9 68 10 101 2 33 14 122 26 198 l23 137 -26 26 c-14 14 -56 43 -93 63
-105 56 -126 112 -95 248 13 57 12 66 -3 99 l-18 36 -57 -7 c-57 -6 -57 -6
-68 24 -14 35 -61 59 -144 71 -116 17 -210 66 -210 109 0 9 -23 44 -51 79 -36
44 -58 62 -75 62 -35 0 -35 -11 2 -70 18 -30 34 -58 34 -62 0 -24 -38 3 -136
96 -117 110 -126 125 -140 233 -6 45 -3 58 20 98 23 39 27 55 24 110 -1 36 -7
65 -12 65 -12 0 -74 -57 -143 -132 l-58 -63 54 -5 c76 -7 75 -25 -1 -40 -35
-6 -71 -16 -80 -21 -16 -8 -133 -228 -125 -235 1 -2 32 1 67 6 84 12 260 13
260 1 0 -11 -12 -14 -198 -42 -134 -21 -144 -24 -153 -47 -14 -36 -42 -222
-35 -230 4 -3 70 5 149 18 153 26 357 34 364 14 2 -8 -33 -13 -109 -17 -114
-5 -372 -51 -395 -69 -7 -6 -13 -22 -13 -36 0 -42 22 -199 29 -211 6 -9 40 -6
132 8 218 35 369 38 369 10 0 -6 -4 -8 -9 -5 -14 9 -291 -24 -383 -45 -73 -17
-88 -24 -88 -40 0 -29 69 -192 95 -224 l22 -28 107 18 c125 20 310 25 326 9 8
-8 -11 -13 -72 -18 -115 -9 -338 -48 -338 -58 0 -19 67 -106 137 -176 l72 -74
93 8 c160 15 267 10 246 -11 -3 -3 -61 -12 -129 -21 -68 -9 -126 -18 -129 -21
-12 -11 108 -82 237 -140 127 -57 211 -74 383 -80 227 -8 353 20 580 129 125
59 123 65 -35 93 -86 16 -117 28 -98 37 4 3 60 -1 123 -8 183 -20 170 -22 246
48 63 59 160 175 153 183 -2 2 -60 15 -129 31 -69 15 -127 29 -129 31 -3 2 0
7 5 12 5 5 65 1 139 -10 72 -10 135 -18 142 -19 11 0 133 232 133 255 0 7 -24
17 -53 24 -95 21 -127 32 -127 42 0 7 33 8 100 4 82 -6 100 -5 100 6 0 8 7 58
14 113 8 54 12 104 9 112 -5 14 -194 61 -285 71 -35 3 -58 11 -58 18 0 11 106
3 285 -24 33 -5 62 -7 64 -5 6 5 -26 245 -33 251 -13 14 -212 57 -348 76 -87
12 -158 25 -158 29 0 21 260 1 408 -31 66 -14 82 -15 82 -4 0 14 -87 213 -99
225 -15 17 -182 58 -291 73 -168 22 -180 25 -180 37 0 16 223 2 335 -21 50
-10 91 -17 93 -16 4 3 -84 113 -132 163 -62 66 -98 80 -286 109 -94 15 -170
31 -170 36 0 5 57 7 130 6 90 -3 130 -1 130 7 0 14 -197 107 -285 133 -174 54
-385 65 -549 31z"/>
<path d="M4513 2802 c-17 -26 -37 -60 -43 -76 -13 -34 -4 -85 16 -93 17 -6
134 96 134 117 0 21 -52 100 -65 100 -5 0 -24 -22 -42 -48z"/>
<path d="M4360 2767 c0 -7 -13 -26 -30 -42 -42 -40 -63 -90 -56 -131 4 -18 11
-36 16 -39 6 -4 29 9 53 28 23 19 52 39 64 46 35 18 37 46 6 101 -26 47 -53
66 -53 37z"/>
<path d="M1087 2749 c-93 -22 -202 -72 -283 -126 -73 -50 -206 -189 -202 -210
2 -10 39 -32 88 -54 l86 -38 64 15 c118 27 124 23 171 -99 19 -52 99 -157 118
-157 5 0 43 89 86 198 79 201 147 337 216 429 21 29 39 55 39 58 0 3 -69 5
-152 4 -115 0 -172 -5 -231 -20z"/>
<path d="M4595 2666 c-76 -78 -93 -127 -62 -170 12 -17 15 -16 46 13 18 17 39
31 46 31 21 0 65 40 65 59 0 23 -39 111 -48 110 -4 -1 -25 -20 -47 -43z"/>
<path d="M4434 2598 c-12 -11 -40 -37 -63 -58 -36 -33 -41 -43 -41 -80 0 -48
-3 -48 94 -7 89 38 93 45 72 112 -18 59 -29 64 -62 33z"/>
<path d="M3370 2566 c0 -8 5 -18 10 -21 6 -3 10 -20 10 -37 0 -50 27 -94 75
-119 24 -13 46 -21 49 -19 2 3 2 45 -1 93 -7 99 -8 100 -90 111 -43 5 -53 4
-53 -8z"/>
<path d="M3547 2468 c3 -40 13 -84 22 -97 14 -23 78 -57 88 -48 6 7 11 149 5
165 -6 16 -47 37 -89 46 l-32 7 6 -73z"/>
<path d="M3704 2391 c1 -80 2 -82 38 -118 21 -20 40 -35 43 -32 3 3 10 43 16
88 11 81 11 84 -12 107 -13 13 -38 26 -55 30 l-31 6 1 -81z"/>
<path d="M3847 2393 c-4 -3 -5 -21 -1 -38 3 -18 1 -49 -5 -70 -7 -26 -7 -44 0
-57 11 -20 66 -58 85 -58 12 0 28 148 18 173 -10 28 -83 65 -97 50z"/>
<path d="M3423 2349 c3 -8 26 -63 52 -124 26 -60 49 -118 52 -127 7 -23 12
-23 80 8 106 47 102 47 115 16 6 -15 44 -98 85 -184 64 -136 72 -160 61 -177
-10 -16 -9 -26 5 -55 9 -20 22 -36 28 -36 7 0 54 20 105 44 52 25 94 43 94 41
0 -10 142 68 146 80 6 16 -24 85 -37 85 -5 0 -34 -11 -65 -25 -67 -29 -64 -29
-64 -10 0 9 16 23 35 32 19 9 35 21 35 27 0 6 -15 37 -33 69 -32 58 -32 59
-137 101 -105 43 -190 89 -266 143 -22 17 -55 33 -73 36 -18 4 -45 15 -59 25
-15 11 -45 22 -67 25 -22 4 -53 10 -69 13 -23 5 -28 4 -23 -7z"/>
<path d="M3990 2323 c0 -5 -5 -41 -10 -81 -6 -47 -6 -80 0 -92 10 -19 59 -40
96 -40 21 0 22 3 17 63 -2 34 -9 74 -15 90 -15 38 -87 87 -88 60z"/>
<path d="M814 2300 c-12 -5 -31 -21 -42 -37 -35 -50 -170 -315 -217 -428 -74
-175 -182 -556 -171 -600 8 -32 45 -34 72 -4 10 12 39 31 64 44 25 13 56 35
70 50 14 15 51 40 83 56 31 16 57 33 57 37 0 4 20 28 44 54 98 108 111 140
161 410 48 260 52 305 34 359 -19 55 -37 69 -88 68 -25 0 -56 -4 -67 -9z"/>
<path d="M4116 2253 c4 -10 10 -46 12 -79 5 -85 25 -106 98 -103 38 2 53 6 50
15 -2 6 -10 31 -17 53 -10 34 -25 50 -75 86 -68 49 -80 54 -68 28z"/>
<path d="M457 2135 c-42 -29 -47 -50 -14 -59 13 -3 41 -19 62 -36 47 -37 67
-38 99 -3 l26 28 -47 47 c-26 27 -56 48 -68 48 -11 0 -37 -11 -58 -25z"/>
<path d="M336 2021 c-42 -43 -41 -60 4 -59 16 1 40 -6 54 -15 35 -23 88 -21
120 4 14 11 26 24 26 29 0 9 -138 80 -156 80 -5 0 -27 -18 -48 -39z"/>
<path d="M1063 1955 c-3 -9 -21 -22 -39 -30 -18 -7 -43 -29 -54 -47 -20 -33
-28 -108 -11 -108 15 0 125 52 144 68 21 19 22 63 2 102 -17 33 -32 38 -42 15z"/>
<path d="M250 1898 c-11 -18 -20 -42 -20 -53 0 -18 6 -21 38 -21 20 0 53 -3
73 -8 34 -7 41 -5 78 29 47 43 54 69 16 59 -14 -3 -42 1 -65 10 -65 26 -97 21
-120 -16z"/>
<path d="M1084 1785 c-12 -8 -37 -17 -55 -20 -47 -8 -73 -28 -93 -68 -25 -54
-22 -71 12 -62 15 4 53 10 85 14 31 4 61 12 66 17 10 11 22 134 12 134 -3 0
-16 -7 -27 -15z"/>
<path d="M208 1759 c-35 -34 -41 -97 -9 -79 11 5 47 10 79 10 55 0 63 3 86 31
45 53 37 64 -51 65 -72 1 -79 -1 -105 -27z"/>
<path d="M4085 1718 c-49 -23 -92 -43 -94 -45 -12 -8 25 -53 43 -53 23 0 160
62 169 77 9 14 -4 63 -17 63 -6 -1 -51 -19 -101 -42z"/>
<path d="M330 1660 c-8 -5 -34 -10 -57 -10 -23 0 -53 -5 -67 -11 -42 -19 -77
-119 -42 -119 8 0 18 5 21 10 3 6 19 10 34 10 83 0 115 23 131 95 8 37 5 41
-20 25z"/>
<path d="M1030 1620 c-8 -5 -33 -10 -55 -10 -22 0 -50 -7 -62 -15 -22 -15 -68
-83 -62 -90 2 -1 43 -6 92 -10 l87 -7 14 33 c8 19 17 51 21 72 8 39 -3 48 -35
27z"/>
<path d="M255 1506 c-50 -9 -63 -16 -82 -45 -25 -37 -31 -91 -10 -91 6 0 21 7
31 15 11 8 35 15 54 15 45 0 92 46 92 89 0 34 2 34 -85 17z"/>
<path d="M1085 1486 c-9 -14 -19 -44 -22 -66 l-6 -40 59 6 c33 3 71 10 86 16
33 12 60 52 56 81 -3 20 -10 22 -80 25 -73 3 -78 2 -93 -22z"/>
<path d="M797 1455 c-36 -25 -54 -54 -40 -65 15 -12 161 -43 172 -36 12 8 61
99 61 113 0 5 -35 9 -79 10 -68 1 -84 -2 -114 -22z"/>
<path d="M1250 1347 c0 -35 7 -81 15 -100 8 -20 15 -47 15 -60 0 -25 64 -107
84 -107 7 0 20 6 30 13 17 12 13 23 -52 162 -38 82 -74 151 -81 153 -7 2 -11
-17 -11 -61z"/>
<path d="M263 1361 c-76 -39 -93 -58 -93 -102 0 -46 10 -54 47 -34 15 8 45 21
65 29 29 12 39 22 47 53 14 51 14 83 -1 82 -7 -1 -36 -14 -65 -28z"/>
<path d="M1185 1370 c-16 -11 -43 -22 -60 -26 -44 -9 -65 -32 -65 -70 0 -34
18 -84 30 -84 4 0 13 7 21 16 7 9 29 23 48 32 37 18 63 59 76 120 8 38 -5 42
-50 12z"/>
<path d="M670 1348 c-66 -34 -62 -48 22 -86 40 -17 78 -32 85 -32 11 0 83 90
83 104 0 3 -15 6 -32 6 -18 1 -44 7 -58 15 -34 20 -49 19 -100 -7z"/>
<path d="M894 1312 c-6 -4 -23 -26 -37 -49 -20 -32 -36 -45 -66 -53 -28 -7
-46 -20 -60 -44 -24 -39 -53 -60 -96 -70 -16 -4 -49 -25 -72 -47 -30 -27 -52
-39 -73 -39 -34 0 -34 0 -16 -60 20 -65 64 -156 108 -226 21 -34 38 -66 38
-72 0 -6 24 -34 53 -63 41 -40 87 -68 222 -134 222 -107 454 -201 545 -219
260 -53 336 -69 338 -71 3 -2 -19 -97 -34 -148 -6 -18 2 -19 143 -15 l148 3
95 47 c63 31 127 73 190 126 90 76 170 160 170 180 0 5 -33 12 -73 15 -126 11
-330 74 -589 182 -38 16 -70 26 -74 23 -9 -9 22 -113 48 -160 22 -41 26 -43
93 -56 39 -7 113 -19 165 -26 84 -11 92 -14 72 -24 -14 -9 -80 -13 -189 -15
l-168 -2 -5 40 c-4 22 -11 49 -17 61 -7 11 -93 71 -192 133 -210 131 -326 212
-398 279 -47 43 -53 54 -53 88 0 22 7 49 15 61 15 21 14 25 -11 63 -15 22 -33
62 -40 88 -8 26 -22 72 -33 102 -11 30 -20 67 -21 83 0 26 -1 27 -57 27 -32 0
-63 -4 -69 -8z"/>
<path d="M535 1256 c-17 -7 -36 -20 -43 -28 -11 -14 -5 -20 42 -48 31 -17 58
-35 61 -41 4 -5 19 -9 35 -9 21 0 38 11 64 42 20 23 35 47 33 52 -2 6 -21 13
-43 17 -21 3 -49 10 -61 17 -27 15 -50 15 -88 -2z"/>
<path d="M316 1235 c-3 -9 -21 -22 -40 -30 -42 -18 -76 -59 -76 -94 0 -67 27
-93 48 -47 6 14 26 29 47 36 46 15 69 57 60 111 -7 40 -28 52 -39 24z"/>
<path d="M1157 1190 l-58 -58 22 -53 c25 -66 28 -69 43 -45 6 11 30 41 54 68
23 27 42 57 42 67 0 30 -21 81 -33 80 -7 -1 -38 -28 -70 -59z"/>
<path d="M404 1167 c-3 -8 5 -39 16 -70 29 -77 54 -84 114 -31 24 22 45 44 45
51 1 6 -14 15 -31 19 -18 3 -44 15 -57 25 -28 22 -79 25 -87 6z"/>
<path d="M1235 1073 c-14 -27 -32 -57 -40 -68 -13 -19 -12 -25 18 -73 36 -57
57 -66 57 -24 0 15 12 45 25 67 14 22 25 49 25 60 0 24 -36 85 -50 85 -5 0
-21 -21 -35 -47z"/>
<path d="M356 1095 c-3 -8 -30 -31 -61 -50 -47 -30 -55 -40 -55 -66 0 -27 24
-89 35 -89 3 0 29 25 60 55 61 61 73 91 55 135 -14 33 -25 38 -34 15z"/>
<path d="M1340 998 c0 -13 -10 -47 -22 -76 l-22 -54 19 -36 c24 -44 50 -53 60
-20 4 13 20 44 37 70 34 54 30 69 -26 111 -42 33 -46 33 -46 5z"/>
<path d="M410 955 c0 -8 -22 -31 -50 -51 -27 -19 -52 -44 -55 -55 -8 -23 33
-109 52 -109 7 0 13 7 13 15 0 8 20 37 45 65 50 56 50 56 33 111 -11 38 -38
54 -38 24z"/>
<path d="M1440 883 c-1 -16 -7 -39 -15 -53 -21 -36 -18 -87 6 -121 23 -32 49
-38 49 -11 0 9 12 35 25 57 32 51 31 86 -1 124 -33 40 -64 41 -64 4z"/>
<path d="M230 883 c0 -5 -31 -35 -69 -68 -46 -40 -70 -68 -70 -82 -1 -13 5
-24 12 -24 20 -3 212 3 215 6 2 2 -8 25 -22 52 -13 27 -27 66 -31 86 -4 22
-13 37 -21 37 -8 0 -14 -3 -14 -7z"/>
<path d="M427 768 c-62 -67 -64 -75 -23 -135 24 -37 46 -43 46 -13 0 11 16 37
35 59 20 22 35 49 35 63 0 29 -19 88 -28 88 -4 0 -33 -28 -65 -62z"/>
<path d="M1550 777 c0 -8 -13 -34 -30 -58 -16 -24 -30 -52 -30 -62 0 -26 28
-77 43 -77 19 0 107 93 107 113 0 10 -14 36 -32 58 -31 39 -58 51 -58 26z"/>
<path d="M540 691 c0 -5 -18 -33 -40 -62 -46 -62 -48 -76 -17 -124 24 -38 49
-42 56 -10 2 11 17 39 33 62 l30 41 -17 51 c-9 29 -23 51 -31 51 -8 0 -14 -4
-14 -9z"/>
<path d="M598 505 c-21 -35 -38 -72 -38 -82 1 -19 64 -93 80 -93 6 0 10 11 10
24 0 14 11 47 25 73 27 50 27 75 -2 119 -8 13 -20 24 -27 24 -6 0 -28 -29 -48
-65z"/>
<path d="M720 428 c0 -18 -9 -46 -20 -63 -31 -47 -26 -82 17 -121 20 -19 42
-34 49 -34 7 0 15 24 19 58 13 104 11 127 -15 160 -33 41 -50 40 -50 0z"/>
<path d="M835 323 c-3 -21 -15 -57 -25 -80 -18 -41 -18 -43 0 -66 18 -22 96
-65 104 -56 2 2 6 39 10 81 l7 77 -37 41 c-20 22 -40 40 -44 40 -4 0 -11 -17
-15 -37z"/>
<path d="M965 190 c0 -100 7 -115 65 -124 47 -8 64 3 51 35 -5 14 -7 37 -4 51
3 14 -3 40 -12 57 -15 30 -67 71 -90 71 -6 0 -10 -37 -10 -90z"/>
<path d="M1115 213 c4 -16 9 -54 10 -87 4 -73 18 -89 84 -90 58 -1 68 6 53 37
-6 12 -16 41 -22 64 -12 49 -68 103 -106 103 -24 0 -25 -3 -19 -27z"/>
<path d="M1257 223 c-7 -11 39 -150 55 -170 20 -24 138 -4 138 24 0 7 -3 13
-7 13 -5 0 -20 19 -35 43 -15 23 -38 53 -51 65 -26 24 -91 40 -100 25z"/>
</g>
</svg>
